<svg xmlns="http://www.w3.org/2000/svg" width="16" height="32" viewBox="0 0 16 32">
  <!-- Background rectangle with your specified background color -->
  <rect width="100%" height="100%" fill="#fff4e0" />

  <!-- Pattern from your CSS background-image -->
  <pattern id="pattern" x="0" y="0" width="16" height="32" patternUnits="userSpaceOnUse">
    <!-- SVG path from your CSS background-image -->
    <path fill="#ffbf9b" fill-opacity="0.32" fill-rule="evenodd" d="M0 24h4v2H0v-2zm0 4h6v2H0v-2zm0-8h2v2H0v-2zM0 0h4v2H0V0zm0 4h2v2H0V4zm16 20h-6v2h6v-2zm0 4H8v2h8v-2zm0-8h-4v2h4v-2zm0-20h-6v2h6V0zm0 4h-4v2h4V4zm-2 12h2v2h-2v-2zm0-8h2v2h-2V8zM2 8h10v2H2V8zm0 8h10v2H2v-2zm-2-4h14v2H0v-2zm4-8h6v2H4V4zm0 16h6v2H4v-2zM6 0h2v2H6V0zm0 24h2v2H6v-2z" />
  </pattern>

  <!-- Rectangle that uses the pattern as its fill -->
  <rect width="100%" height="100%" fill="url(#pattern)" />
</svg>
