<svg xmlns="http://www.w3.org/2000/svg"  version="1.1" xmlns:xlink="http://www.w3.org/1999/xlink" xmlns:svgjs="http://svgjs.dev/svgjs" width="1440" height="3000" preserveAspectRatio="none" viewBox="0 0 1440 3000"><g mask="url(&quot;#SvgjsMask1016&quot;)" fill="none"><g mask="url(&quot;#SvgjsMask1017&quot;)"><path d="M465.5 2229.5L1004.5 2229.5L1298.5 1935.5L1298.5 1837.5" stroke-width="8.17" stroke="rgba(18, 36, 43, 1)"></path><path d="M453.25 2229.5 a12.25 12.25 0 1 0 24.5 0 a12.25 12.25 0 1 0 -24.5 0zM1286.25 1837.5 a12.25 12.25 0 1 0 24.5 0 a12.25 12.25 0 1 0 -24.5 0z" fill="rgba(18, 36, 43, 1)"></path><path d="M24.5 465.5L24.5 269.5L73.5 220.5L73.5 171.5L24.5 122.5L24.5 24.5" stroke-width="8.17" stroke="rgba(18, 36, 43, 1)"></path><path d="M12.25 465.5 a12.25 12.25 0 1 0 24.5 0 a12.25 12.25 0 1 0 -24.5 0zM12.25 24.5 a12.25 12.25 0 1 0 24.5 0 a12.25 12.25 0 1 0 -24.5 0z" fill="rgba(18, 36, 43, 1)"></path><path d="M1102.5 1347.5L171.5 2278.5" stroke-width="8.17" stroke="rgba(18, 36, 43, 1)"></path><path d="M1090.25 1347.5 a12.25 12.25 0 1 0 24.5 0 a12.25 12.25 0 1 0 -24.5 0zM159.25 2278.5 a12.25 12.25 0 1 0 24.5 0 a12.25 12.25 0 1 0 -24.5 0z" fill="rgba(18, 36, 43, 1)"></path><path d="M416.5 1984.5L171.5 2229.5L24.5 2229.5" stroke-width="8.17" stroke="rgba(18, 36, 43, 1)"></path><path d="M404.25 1984.5 a12.25 12.25 0 1 0 24.5 0 a12.25 12.25 0 1 0 -24.5 0zM12.25 2229.5 a12.25 12.25 0 1 0 24.5 0 a12.25 12.25 0 1 0 -24.5 0z" fill="rgba(18, 36, 43, 1)"></path><path d="M857.5 1984.5L1200.5 1641.5L1200.5 1053.5" stroke-width="8.17" stroke="rgba(18, 36, 43, 1)"></path><path d="M845.25 1984.5 a12.25 12.25 0 1 0 24.5 0 a12.25 12.25 0 1 0 -24.5 0zM1188.25 1053.5 a12.25 12.25 0 1 0 24.5 0 a12.25 12.25 0 1 0 -24.5 0z" fill="rgba(18, 36, 43, 1)"></path><path d="M1445.5 220.5L1445.5 24.5" stroke-width="8.17" stroke="rgba(18, 36, 43, 1)"></path><path d="M1433.25 220.5 a12.25 12.25 0 1 0 24.5 0 a12.25 12.25 0 1 0 -24.5 0zM1433.25 24.5 a12.25 12.25 0 1 0 24.5 0 a12.25 12.25 0 1 0 -24.5 0z" fill="rgba(18, 36, 43, 1)"></path><path d="M1298.5 2229.5L1053.5 2229.5L367.5 2915.5" stroke-width="8.17" stroke="rgba(18, 36, 43, 1)"></path><path d="M1286.25 2229.5 a12.25 12.25 0 1 0 24.5 0 a12.25 12.25 0 1 0 -24.5 0zM355.25 2915.5 a12.25 12.25 0 1 0 24.5 0 a12.25 12.25 0 1 0 -24.5 0z" fill="rgba(18, 36, 43, 1)"></path><path d="M857.5 2180.5L1004.5 2180.5L1249.5 1935.5L1249.5 1396.5" stroke-width="8.17" stroke="rgba(18, 36, 43, 1)"></path><path d="M845.25 2180.5 a12.25 12.25 0 1 0 24.5 0 a12.25 12.25 0 1 0 -24.5 0zM1237.25 1396.5 a12.25 12.25 0 1 0 24.5 0 a12.25 12.25 0 1 0 -24.5 0z" fill="rgba(18, 36, 43, 1)"></path><path d="M759.5 416.5L759.5 563.5L808.5 612.5L808.5 1004.5L1151.5 1347.5" stroke-width="8.17" stroke="rgba(18, 36, 43, 1)"></path><path d="M747.25 416.5 a12.25 12.25 0 1 0 24.5 0 a12.25 12.25 0 1 0 -24.5 0zM1139.25 1347.5 a12.25 12.25 0 1 0 24.5 0 a12.25 12.25 0 1 0 -24.5 0z" fill="rgba(18, 36, 43, 1)"></path><path d="M1347.5 2131.5L1151.5 2131.5L1102.5 2180.5" stroke-width="8.17" stroke="rgba(18, 36, 43, 1)"></path><path d="M1335.25 2131.5 a12.25 12.25 0 1 0 24.5 0 a12.25 12.25 0 1 0 -24.5 0zM1090.25 2180.5 a12.25 12.25 0 1 0 24.5 0 a12.25 12.25 0 1 0 -24.5 0z" fill="rgba(18, 36, 43, 1)"></path><path d="M1249.5 2523.5L1445.5 2327.5L1445.5 2278.5L1396.5 2229.5L1396.5 1592.5" stroke-width="8.17" stroke="rgba(18, 36, 43, 1)"></path><path d="M1237.25 2523.5 a12.25 12.25 0 1 0 24.5 0 a12.25 12.25 0 1 0 -24.5 0zM1384.25 1592.5 a12.25 12.25 0 1 0 24.5 0 a12.25 12.25 0 1 0 -24.5 0z" fill="rgba(18, 36, 43, 1)"></path><path d="M1347.5 2180.5L1151.5 2180.5" stroke-width="8.17" stroke="rgba(18, 36, 43, 1)"></path><path d="M1335.25 2180.5 a12.25 12.25 0 1 0 24.5 0 a12.25 12.25 0 1 0 -24.5 0zM1139.25 2180.5 a12.25 12.25 0 1 0 24.5 0 a12.25 12.25 0 1 0 -24.5 0z" fill="rgba(18, 36, 43, 1)"></path><path d="M710.5 661.5L759.5 710.5L759.5 1004.5L955.5 1200.5L955.5 1298.5L1004.5 1347.5L1053.5 1347.5" stroke-width="8.17" stroke="rgba(18, 36, 43, 1)"></path><path d="M698.25 661.5 a12.25 12.25 0 1 0 24.5 0 a12.25 12.25 0 1 0 -24.5 0zM1041.25 1347.5 a12.25 12.25 0 1 0 24.5 0 a12.25 12.25 0 1 0 -24.5 0z" fill="rgba(18, 36, 43, 1)"></path><path d="M1445.5 857.5L1445.5 269.5L1249.5 73.5L1249.5 24.5" stroke-width="8.17" stroke="rgba(18, 36, 43, 1)"></path><path d="M1433.25 857.5 a12.25 12.25 0 1 0 24.5 0 a12.25 12.25 0 1 0 -24.5 0zM1237.25 24.5 a12.25 12.25 0 1 0 24.5 0 a12.25 12.25 0 1 0 -24.5 0z" fill="rgba(18, 36, 43, 1)"></path><path d="M710.5 2719.5L514.5 2915.5L514.5 2964.5L563.5 3013.5L710.5 3013.5L808.5 2915.5L808.5 2523.5" stroke-width="8.17" stroke="rgba(18, 36, 43, 1)"></path><path d="M698.25 2719.5 a12.25 12.25 0 1 0 24.5 0 a12.25 12.25 0 1 0 -24.5 0zM796.25 2523.5 a12.25 12.25 0 1 0 24.5 0 a12.25 12.25 0 1 0 -24.5 0z" fill="rgba(18, 36, 43, 1)"></path><path d="M1347.5 2719.5L1445.5 2719.5" stroke-width="8.17" stroke="rgba(18, 36, 43, 1)"></path><path d="M1335.25 2719.5 a12.25 12.25 0 1 0 24.5 0 a12.25 12.25 0 1 0 -24.5 0zM1433.25 2719.5 a12.25 12.25 0 1 0 24.5 0 a12.25 12.25 0 1 0 -24.5 0z" fill="rgba(18, 36, 43, 1)"></path><path d="M1102.5 465.5L1396.5 759.5L1396.5 808.5L1053.5 1151.5L1053.5 1200.5L1151.5 1298.5" stroke-width="8.17" stroke="rgba(18, 36, 43, 1)"></path><path d="M1090.25 465.5 a12.25 12.25 0 1 0 24.5 0 a12.25 12.25 0 1 0 -24.5 0zM1139.25 1298.5 a12.25 12.25 0 1 0 24.5 0 a12.25 12.25 0 1 0 -24.5 0z" fill="rgba(18, 36, 43, 1)"></path><path d="M1298.5 2327.5L1249.5 2278.5L1053.5 2278.5L857.5 2474.5L857.5 2523.5L955.5 2621.5L1004.5 2621.5L1249.5 2376.5L1249.5 2327.5" stroke-width="8.17" stroke="rgba(18, 36, 43, 1)"></path><path d="M1286.25 2327.5 a12.25 12.25 0 1 0 24.5 0 a12.25 12.25 0 1 0 -24.5 0zM1237.25 2327.5 a12.25 12.25 0 1 0 24.5 0 a12.25 12.25 0 1 0 -24.5 0z" fill="rgba(18, 36, 43, 1)"></path><path d="M367.5 1543.5L416.5 1494.5L906.5 1494.5L1004.5 1396.5" stroke-width="8.17" stroke="rgba(18, 36, 43, 1)"></path><path d="M355.25 1543.5 a12.25 12.25 0 1 0 24.5 0 a12.25 12.25 0 1 0 -24.5 0zM992.25 1396.5 a12.25 12.25 0 1 0 24.5 0 a12.25 12.25 0 1 0 -24.5 0z" fill="rgba(18, 36, 43, 1)"></path><path d="M1298.5 1151.5L1445.5 1298.5L1445.5 2082.5" stroke-width="8.17" stroke="rgba(18, 36, 43, 1)"></path><path d="M1286.25 1151.5 a12.25 12.25 0 1 0 24.5 0 a12.25 12.25 0 1 0 -24.5 0zM1433.25 2082.5 a12.25 12.25 0 1 0 24.5 0 a12.25 12.25 0 1 0 -24.5 0z" fill="rgba(18, 36, 43, 1)"></path><path d="M906.5 1004.5L906.5 710.5L1102.5 514.5" stroke-width="8.17" stroke="rgba(18, 36, 43, 1)"></path><path d="M894.25 1004.5 a12.25 12.25 0 1 0 24.5 0 a12.25 12.25 0 1 0 -24.5 0zM1090.25 514.5 a12.25 12.25 0 1 0 24.5 0 a12.25 12.25 0 1 0 -24.5 0z" fill="rgba(18, 36, 43, 1)"></path><path d="M318.5 906.5L367.5 857.5L367.5 710.5L1053.5 24.5L1102.5 24.5" stroke-width="8.17" stroke="rgba(18, 36, 43, 1)"></path><path d="M306.25 906.5 a12.25 12.25 0 1 0 24.5 0 a12.25 12.25 0 1 0 -24.5 0zM1090.25 24.5 a12.25 12.25 0 1 0 24.5 0 a12.25 12.25 0 1 0 -24.5 0z" fill="rgba(18, 36, 43, 1)"></path><path d="M73.5 759.5L73.5 465.5L514.5 24.5L710.5 24.5" stroke-width="8.17" stroke="rgba(18, 36, 43, 1)"></path><path d="M61.25 759.5 a12.25 12.25 0 1 0 24.5 0 a12.25 12.25 0 1 0 -24.5 0zM698.25 24.5 a12.25 12.25 0 1 0 24.5 0 a12.25 12.25 0 1 0 -24.5 0z" fill="rgba(18, 36, 43, 1)"></path><path d="M955.5 2033.5L955.5 1935.5L1200.5 1690.5" stroke-width="8.17" stroke="rgba(18, 36, 43, 1)"></path><path d="M943.25 2033.5 a12.25 12.25 0 1 0 24.5 0 a12.25 12.25 0 1 0 -24.5 0zM1188.25 1690.5 a12.25 12.25 0 1 0 24.5 0 a12.25 12.25 0 1 0 -24.5 0z" fill="rgba(18, 36, 43, 1)"></path><path d="M367.5 1298.5L465.5 1298.5L612.5 1445.5L906.5 1445.5L955.5 1396.5L955.5 1347.5L710.5 1102.5L710.5 1053.5" stroke-width="8.17" stroke="rgba(18, 36, 43, 1)"></path><path d="M355.25 1298.5 a12.25 12.25 0 1 0 24.5 0 a12.25 12.25 0 1 0 -24.5 0zM698.25 1053.5 a12.25 12.25 0 1 0 24.5 0 a12.25 12.25 0 1 0 -24.5 0z" fill="rgba(18, 36, 43, 1)"></path><path d="M955.5 2572.5L906.5 2523.5L906.5 2474.5L1053.5 2327.5L1200.5 2327.5" stroke-width="8.17" stroke="rgba(18, 36, 43, 1)"></path><path d="M943.25 2572.5 a12.25 12.25 0 1 0 24.5 0 a12.25 12.25 0 1 0 -24.5 0zM1188.25 2327.5 a12.25 12.25 0 1 0 24.5 0 a12.25 12.25 0 1 0 -24.5 0z" fill="rgba(18, 36, 43, 1)"></path><path d="M269.5 1396.5L318.5 1347.5L318.5 1249.5L710.5 857.5L710.5 710.5L563.5 563.5" stroke-width="8.17" stroke="rgba(18, 36, 43, 1)"></path><path d="M257.25 1396.5 a12.25 12.25 0 1 0 24.5 0 a12.25 12.25 0 1 0 -24.5 0zM551.25 563.5 a12.25 12.25 0 1 0 24.5 0 a12.25 12.25 0 1 0 -24.5 0z" fill="rgba(18, 36, 43, 1)"></path><path d="M1053.5 514.5L808.5 514.5" stroke-width="8.17" stroke="rgba(18, 36, 43, 1)"></path><path d="M1041.25 514.5 a12.25 12.25 0 1 0 24.5 0 a12.25 12.25 0 1 0 -24.5 0zM796.25 514.5 a12.25 12.25 0 1 0 24.5 0 a12.25 12.25 0 1 0 -24.5 0z" fill="rgba(18, 36, 43, 1)"></path><path d="M857.5 2082.5L906.5 2033.5L906.5 1984.5" stroke-width="8.17" stroke="rgba(18, 36, 43, 1)"></path><path d="M845.25 2082.5 a12.25 12.25 0 1 0 24.5 0 a12.25 12.25 0 1 0 -24.5 0zM894.25 1984.5 a12.25 12.25 0 1 0 24.5 0 a12.25 12.25 0 1 0 -24.5 0z" fill="rgba(18, 36, 43, 1)"></path><path d="M416.5 416.5L465.5 416.5L857.5 24.5" stroke-width="8.17" stroke="rgba(18, 36, 43, 1)"></path><path d="M404.25 416.5 a12.25 12.25 0 1 0 24.5 0 a12.25 12.25 0 1 0 -24.5 0zM845.25 24.5 a12.25 12.25 0 1 0 24.5 0 a12.25 12.25 0 1 0 -24.5 0z" fill="rgba(18, 36, 43, 1)"></path><path d="M367.5 2425.5L514.5 2278.5L955.5 2278.5" stroke-width="8.17" stroke="rgba(18, 36, 43, 1)"></path><path d="M355.25 2425.5 a12.25 12.25 0 1 0 24.5 0 a12.25 12.25 0 1 0 -24.5 0zM943.25 2278.5 a12.25 12.25 0 1 0 24.5 0 a12.25 12.25 0 1 0 -24.5 0z" fill="rgba(18, 36, 43, 1)"></path><path d="M367.5 1886.5L367.5 1984.5L171.5 2180.5L24.5 2180.5" stroke-width="8.17" stroke="rgba(18, 36, 43, 1)"></path><path d="M355.25 1886.5 a12.25 12.25 0 1 0 24.5 0 a12.25 12.25 0 1 0 -24.5 0zM12.25 2180.5 a12.25 12.25 0 1 0 24.5 0 a12.25 12.25 0 1 0 -24.5 0z" fill="rgba(18, 36, 43, 1)"></path><path d="M318.5 1690.5L416.5 1690.5L563.5 1543.5L857.5 1543.5" stroke-width="8.17" stroke="rgba(18, 36, 43, 1)"></path><path d="M306.25 1690.5 a12.25 12.25 0 1 0 24.5 0 a12.25 12.25 0 1 0 -24.5 0zM845.25 1543.5 a12.25 12.25 0 1 0 24.5 0 a12.25 12.25 0 1 0 -24.5 0z" fill="rgba(18, 36, 43, 1)"></path><path d="M416.5 2523.5L465.5 2474.5L465.5 2376.5L514.5 2327.5L661.5 2327.5L759.5 2425.5L808.5 2425.5L906.5 2327.5" stroke-width="8.17" stroke="rgba(18, 36, 43, 1)"></path><path d="M404.25 2523.5 a12.25 12.25 0 1 0 24.5 0 a12.25 12.25 0 1 0 -24.5 0zM894.25 2327.5 a12.25 12.25 0 1 0 24.5 0 a12.25 12.25 0 1 0 -24.5 0z" fill="rgba(18, 36, 43, 1)"></path><path d="M906.5 1347.5L612.5 1053.5L563.5 1053.5L367.5 1249.5" stroke-width="8.17" stroke="rgba(18, 36, 43, 1)"></path><path d="M894.25 1347.5 a12.25 12.25 0 1 0 24.5 0 a12.25 12.25 0 1 0 -24.5 0zM355.25 1249.5 a12.25 12.25 0 1 0 24.5 0 a12.25 12.25 0 1 0 -24.5 0z" fill="rgba(18, 36, 43, 1)"></path><path d="M220.5 2817.5L220.5 2866.5L73.5 3013.5L24.5 3013.5" stroke-width="8.17" stroke="rgba(18, 36, 43, 1)"></path><path d="M208.25 2817.5 a12.25 12.25 0 1 0 24.5 0 a12.25 12.25 0 1 0 -24.5 0zM12.25 3013.5 a12.25 12.25 0 1 0 24.5 0 a12.25 12.25 0 1 0 -24.5 0z" fill="rgba(18, 36, 43, 1)"></path><path d="M563.5 171.5L661.5 171.5L808.5 24.5" stroke-width="8.17" stroke="rgba(18, 36, 43, 1)"></path><path d="M551.25 171.5 a12.25 12.25 0 1 0 24.5 0 a12.25 12.25 0 1 0 -24.5 0zM796.25 24.5 a12.25 12.25 0 1 0 24.5 0 a12.25 12.25 0 1 0 -24.5 0z" fill="rgba(18, 36, 43, 1)"></path><path d="M1298.5 808.5L1298.5 710.5L1151.5 563.5L1102.5 563.5L1004.5 661.5L1004.5 1151.5" stroke-width="8.17" stroke="rgba(18, 36, 43, 1)"></path><path d="M1286.25 808.5 a12.25 12.25 0 1 0 24.5 0 a12.25 12.25 0 1 0 -24.5 0zM992.25 1151.5 a12.25 12.25 0 1 0 24.5 0 a12.25 12.25 0 1 0 -24.5 0z" fill="rgba(18, 36, 43, 1)"></path><path d="M367.5 2768.5L465.5 2670.5L465.5 2523.5L612.5 2376.5L661.5 2376.5L759.5 2474.5" stroke-width="8.17" stroke="rgba(18, 36, 43, 1)"></path><path d="M355.25 2768.5 a12.25 12.25 0 1 0 24.5 0 a12.25 12.25 0 1 0 -24.5 0zM747.25 2474.5 a12.25 12.25 0 1 0 24.5 0 a12.25 12.25 0 1 0 -24.5 0z" fill="rgba(18, 36, 43, 1)"></path><path d="M1396.5 367.5L1396.5 269.5L1151.5 24.5" stroke-width="8.17" stroke="rgba(18, 36, 43, 1)"></path><path d="M1384.25 367.5 a12.25 12.25 0 1 0 24.5 0 a12.25 12.25 0 1 0 -24.5 0zM1139.25 24.5 a12.25 12.25 0 1 0 24.5 0 a12.25 12.25 0 1 0 -24.5 0z" fill="rgba(18, 36, 43, 1)"></path><path d="M416.5 1445.5L465.5 1445.5L514.5 1396.5" stroke-width="8.17" stroke="rgba(18, 36, 43, 1)"></path><path d="M404.25 1445.5 a12.25 12.25 0 1 0 24.5 0 a12.25 12.25 0 1 0 -24.5 0zM502.25 1396.5 a12.25 12.25 0 1 0 24.5 0 a12.25 12.25 0 1 0 -24.5 0z" fill="rgba(18, 36, 43, 1)"></path><path d="M73.5 2719.5L73.5 2670.5L269.5 2474.5L416.5 2474.5" stroke-width="8.17" stroke="rgba(18, 36, 43, 1)"></path><path d="M61.25 2719.5 a12.25 12.25 0 1 0 24.5 0 a12.25 12.25 0 1 0 -24.5 0zM404.25 2474.5 a12.25 12.25 0 1 0 24.5 0 a12.25 12.25 0 1 0 -24.5 0z" fill="rgba(18, 36, 43, 1)"></path><path d="M367.5 1445.5L171.5 1641.5L171.5 1837.5L318.5 1984.5" stroke-width="8.17" stroke="rgba(18, 36, 43, 1)"></path><path d="M355.25 1445.5 a12.25 12.25 0 1 0 24.5 0 a12.25 12.25 0 1 0 -24.5 0zM306.25 1984.5 a12.25 12.25 0 1 0 24.5 0 a12.25 12.25 0 1 0 -24.5 0z" fill="rgba(18, 36, 43, 1)"></path><path d="M73.5 2817.5L73.5 2768.5L24.5 2719.5L24.5 2621.5L759.5 1886.5" stroke-width="8.17" stroke="rgba(18, 36, 43, 1)"></path><path d="M61.25 2817.5 a12.25 12.25 0 1 0 24.5 0 a12.25 12.25 0 1 0 -24.5 0zM747.25 1886.5 a12.25 12.25 0 1 0 24.5 0 a12.25 12.25 0 1 0 -24.5 0z" fill="rgba(18, 36, 43, 1)"></path><path d="M955.5 2915.5L1445.5 2425.5L1445.5 2376.5" stroke-width="8.17" stroke="rgba(18, 36, 43, 1)"></path><path d="M943.25 2915.5 a12.25 12.25 0 1 0 24.5 0 a12.25 12.25 0 1 0 -24.5 0zM1433.25 2376.5 a12.25 12.25 0 1 0 24.5 0 a12.25 12.25 0 1 0 -24.5 0z" fill="rgba(18, 36, 43, 1)"></path><path d="M171.5 2719.5L122.5 2768.5L122.5 2915.5L73.5 2964.5L24.5 2964.5" stroke-width="8.17" stroke="rgba(18, 36, 43, 1)"></path><path d="M159.25 2719.5 a12.25 12.25 0 1 0 24.5 0 a12.25 12.25 0 1 0 -24.5 0zM12.25 2964.5 a12.25 12.25 0 1 0 24.5 0 a12.25 12.25 0 1 0 -24.5 0z" fill="rgba(18, 36, 43, 1)"></path><path d="M1347.5 1298.5L1347.5 1249.5L1249.5 1151.5L1249.5 1004.5L1396.5 857.5" stroke-width="8.17" stroke="rgba(18, 36, 43, 1)"></path><path d="M1335.25 1298.5 a12.25 12.25 0 1 0 24.5 0 a12.25 12.25 0 1 0 -24.5 0zM1384.25 857.5 a12.25 12.25 0 1 0 24.5 0 a12.25 12.25 0 1 0 -24.5 0z" fill="rgba(18, 36, 43, 1)"></path><path d="M318.5 122.5L318.5 171.5L73.5 416.5" stroke-width="8.17" stroke="rgba(18, 36, 43, 1)"></path><path d="M306.25 122.5 a12.25 12.25 0 1 0 24.5 0 a12.25 12.25 0 1 0 -24.5 0zM61.25 416.5 a12.25 12.25 0 1 0 24.5 0 a12.25 12.25 0 1 0 -24.5 0z" fill="rgba(18, 36, 43, 1)"></path><path d="M1298.5 1445.5L1298.5 1788.5L1347.5 1837.5L1347.5 2082.5" stroke-width="8.17" stroke="rgba(18, 36, 43, 1)"></path><path d="M1286.25 1445.5 a12.25 12.25 0 1 0 24.5 0 a12.25 12.25 0 1 0 -24.5 0zM1335.25 2082.5 a12.25 12.25 0 1 0 24.5 0 a12.25 12.25 0 1 0 -24.5 0z" fill="rgba(18, 36, 43, 1)"></path><path d="M563.5 612.5L563.5 906.5L24.5 1445.5L24.5 1543.5" stroke-width="8.17" stroke="rgba(18, 36, 43, 1)"></path><path d="M551.25 612.5 a12.25 12.25 0 1 0 24.5 0 a12.25 12.25 0 1 0 -24.5 0zM12.25 1543.5 a12.25 12.25 0 1 0 24.5 0 a12.25 12.25 0 1 0 -24.5 0z" fill="rgba(18, 36, 43, 1)"></path><path d="M710.5 514.5L710.5 612.5L759.5 661.5" stroke-width="8.17" stroke="rgba(18, 36, 43, 1)"></path><path d="M698.25 514.5 a12.25 12.25 0 1 0 24.5 0 a12.25 12.25 0 1 0 -24.5 0zM747.25 661.5 a12.25 12.25 0 1 0 24.5 0 a12.25 12.25 0 1 0 -24.5 0z" fill="rgba(18, 36, 43, 1)"></path><path d="M1200.5 2915.5L1200.5 2768.5L1445.5 2523.5L1445.5 2474.5" stroke-width="8.17" stroke="rgba(18, 36, 43, 1)"></path><path d="M1188.25 2915.5 a12.25 12.25 0 1 0 24.5 0 a12.25 12.25 0 1 0 -24.5 0zM1433.25 2474.5 a12.25 12.25 0 1 0 24.5 0 a12.25 12.25 0 1 0 -24.5 0z" fill="rgba(18, 36, 43, 1)"></path><path d="M465.5 906.5L465.5 661.5L514.5 612.5" stroke-width="8.17" stroke="rgba(18, 36, 43, 1)"></path><path d="M453.25 906.5 a12.25 12.25 0 1 0 24.5 0 a12.25 12.25 0 1 0 -24.5 0zM502.25 612.5 a12.25 12.25 0 1 0 24.5 0 a12.25 12.25 0 1 0 -24.5 0z" fill="rgba(18, 36, 43, 1)"></path><path d="M416.5 2180.5L24.5 2572.5" stroke-width="8.17" stroke="rgba(18, 36, 43, 1)"></path><path d="M404.25 2180.5 a12.25 12.25 0 1 0 24.5 0 a12.25 12.25 0 1 0 -24.5 0zM12.25 2572.5 a12.25 12.25 0 1 0 24.5 0 a12.25 12.25 0 1 0 -24.5 0z" fill="rgba(18, 36, 43, 1)"></path><path d="M220.5 73.5L73.5 73.5" stroke-width="8.17" stroke="rgba(18, 36, 43, 1)"></path><path d="M208.25 73.5 a12.25 12.25 0 1 0 24.5 0 a12.25 12.25 0 1 0 -24.5 0zM61.25 73.5 a12.25 12.25 0 1 0 24.5 0 a12.25 12.25 0 1 0 -24.5 0z" fill="rgba(18, 36, 43, 1)"></path><path d="M1102.5 1935.5L1004.5 1935.5" stroke-width="8.17" stroke="rgba(18, 36, 43, 1)"></path><path d="M1090.25 1935.5 a12.25 12.25 0 1 0 24.5 0 a12.25 12.25 0 1 0 -24.5 0zM992.25 1935.5 a12.25 12.25 0 1 0 24.5 0 a12.25 12.25 0 1 0 -24.5 0z" fill="rgba(18, 36, 43, 1)"></path><path d="M563.5 2033.5L563.5 1935.5L1053.5 1445.5L1151.5 1445.5" stroke-width="8.17" stroke="rgba(18, 36, 43, 1)"></path><path d="M551.25 2033.5 a12.25 12.25 0 1 0 24.5 0 a12.25 12.25 0 1 0 -24.5 0zM1139.25 1445.5 a12.25 12.25 0 1 0 24.5 0 a12.25 12.25 0 1 0 -24.5 0z" fill="rgba(18, 36, 43, 1)"></path><path d="M759.5 2180.5L661.5 2082.5L661.5 2033.5L1102.5 1592.5L1151.5 1592.5" stroke-width="8.17" stroke="rgba(18, 36, 43, 1)"></path><path d="M747.25 2180.5 a12.25 12.25 0 1 0 24.5 0 a12.25 12.25 0 1 0 -24.5 0zM1139.25 1592.5 a12.25 12.25 0 1 0 24.5 0 a12.25 12.25 0 1 0 -24.5 0z" fill="rgba(18, 36, 43, 1)"></path><path d="M661.5 1641.5L514.5 1641.5L465.5 1690.5L465.5 1935.5" stroke-width="8.17" stroke="rgba(18, 36, 43, 1)"></path><path d="M649.25 1641.5 a12.25 12.25 0 1 0 24.5 0 a12.25 12.25 0 1 0 -24.5 0zM453.25 1935.5 a12.25 12.25 0 1 0 24.5 0 a12.25 12.25 0 1 0 -24.5 0z" fill="rgba(18, 36, 43, 1)"></path><path d="M857.5 1886.5L710.5 2033.5L710.5 2082.5L808.5 2180.5" stroke-width="8.17" stroke="rgba(18, 36, 43, 1)"></path><path d="M845.25 1886.5 a12.25 12.25 0 1 0 24.5 0 a12.25 12.25 0 1 0 -24.5 0zM796.25 2180.5 a12.25 12.25 0 1 0 24.5 0 a12.25 12.25 0 1 0 -24.5 0z" fill="rgba(18, 36, 43, 1)"></path><path d="M1102.5 1494.5L1053.5 1494.5L612.5 1935.5L612.5 1984.5" stroke-width="8.17" stroke="rgba(18, 36, 43, 1)"></path><path d="M1090.25 1494.5 a12.25 12.25 0 1 0 24.5 0 a12.25 12.25 0 1 0 -24.5 0zM600.25 1984.5 a12.25 12.25 0 1 0 24.5 0 a12.25 12.25 0 1 0 -24.5 0z" fill="rgba(18, 36, 43, 1)"></path><path d="M612.5 1347.5L563.5 1347.5L465.5 1249.5L416.5 1249.5" stroke-width="8.17" stroke="rgba(18, 36, 43, 1)"></path><path d="M600.25 1347.5 a12.25 12.25 0 1 0 24.5 0 a12.25 12.25 0 1 0 -24.5 0zM404.25 1249.5 a12.25 12.25 0 1 0 24.5 0 a12.25 12.25 0 1 0 -24.5 0z" fill="rgba(18, 36, 43, 1)"></path><path d="M24.5 2768.5L24.5 2915.5" stroke-width="8.17" stroke="rgba(18, 36, 43, 1)"></path><path d="M12.25 2768.5 a12.25 12.25 0 1 0 24.5 0 a12.25 12.25 0 1 0 -24.5 0zM12.25 2915.5 a12.25 12.25 0 1 0 24.5 0 a12.25 12.25 0 1 0 -24.5 0z" fill="rgba(18, 36, 43, 1)"></path><path d="M416.5 318.5L367.5 269.5L318.5 269.5L122.5 465.5L122.5 514.5L318.5 710.5L318.5 857.5L171.5 1004.5L171.5 1102.5" stroke-width="8.17" stroke="rgba(18, 36, 43, 1)"></path><path d="M404.25 318.5 a12.25 12.25 0 1 0 24.5 0 a12.25 12.25 0 1 0 -24.5 0zM159.25 1102.5 a12.25 12.25 0 1 0 24.5 0 a12.25 12.25 0 1 0 -24.5 0z" fill="rgba(18, 36, 43, 1)"></path><path d="M906.5 416.5L808.5 416.5L759.5 367.5" stroke-width="8.17" stroke="rgba(18, 36, 43, 1)"></path><path d="M894.25 416.5 a12.25 12.25 0 1 0 24.5 0 a12.25 12.25 0 1 0 -24.5 0zM747.25 367.5 a12.25 12.25 0 1 0 24.5 0 a12.25 12.25 0 1 0 -24.5 0z" fill="rgba(18, 36, 43, 1)"></path><path d="M269.5 3013.5L122.5 3013.5" stroke-width="8.17" stroke="rgba(18, 36, 43, 1)"></path><path d="M257.25 3013.5 a12.25 12.25 0 1 0 24.5 0 a12.25 12.25 0 1 0 -24.5 0zM110.25 3013.5 a12.25 12.25 0 1 0 24.5 0 a12.25 12.25 0 1 0 -24.5 0z" fill="rgba(18, 36, 43, 1)"></path><path d="M1347.5 1102.5L1347.5 1151.5L1445.5 1249.5" stroke-width="8.17" stroke="rgba(18, 36, 43, 1)"></path><path d="M1335.25 1102.5 a12.25 12.25 0 1 0 24.5 0 a12.25 12.25 0 1 0 -24.5 0zM1433.25 1249.5 a12.25 12.25 0 1 0 24.5 0 a12.25 12.25 0 1 0 -24.5 0z" fill="rgba(18, 36, 43, 1)"></path><path d="M122.5 1004.5L122.5 1298.5L24.5 1396.5" stroke-width="8.17" stroke="rgba(18, 36, 43, 1)"></path><path d="M110.25 1004.5 a12.25 12.25 0 1 0 24.5 0 a12.25 12.25 0 1 0 -24.5 0zM12.25 1396.5 a12.25 12.25 0 1 0 24.5 0 a12.25 12.25 0 1 0 -24.5 0z" fill="rgba(18, 36, 43, 1)"></path><path d="M906.5 367.5L857.5 367.5L808.5 318.5" stroke-width="8.17" stroke="rgba(18, 36, 43, 1)"></path><path d="M894.25 367.5 a12.25 12.25 0 1 0 24.5 0 a12.25 12.25 0 1 0 -24.5 0zM796.25 318.5 a12.25 12.25 0 1 0 24.5 0 a12.25 12.25 0 1 0 -24.5 0z" fill="rgba(18, 36, 43, 1)"></path><path d="M1053.5 857.5L1053.5 1102.5" stroke-width="8.17" stroke="rgba(18, 36, 43, 1)"></path><path d="M1041.25 857.5 a12.25 12.25 0 1 0 24.5 0 a12.25 12.25 0 1 0 -24.5 0zM1041.25 1102.5 a12.25 12.25 0 1 0 24.5 0 a12.25 12.25 0 1 0 -24.5 0z" fill="rgba(18, 36, 43, 1)"></path><path d="M73.5 1739.5L122.5 1788.5L122.5 1935.5L24.5 2033.5L24.5 2131.5" stroke-width="8.17" stroke="rgba(18, 36, 43, 1)"></path><path d="M61.25 1739.5 a12.25 12.25 0 1 0 24.5 0 a12.25 12.25 0 1 0 -24.5 0zM12.25 2131.5 a12.25 12.25 0 1 0 24.5 0 a12.25 12.25 0 1 0 -24.5 0z" fill="rgba(18, 36, 43, 1)"></path><path d="M514.5 1837.5L514.5 1739.5L563.5 1690.5L710.5 1690.5L808.5 1592.5" stroke-width="8.17" stroke="rgba(18, 36, 43, 1)"></path><path d="M502.25 1837.5 a12.25 12.25 0 1 0 24.5 0 a12.25 12.25 0 1 0 -24.5 0zM796.25 1592.5 a12.25 12.25 0 1 0 24.5 0 a12.25 12.25 0 1 0 -24.5 0z" fill="rgba(18, 36, 43, 1)"></path><path d="M416.5 367.5L465.5 367.5L563.5 269.5L563.5 220.5L465.5 122.5" stroke-width="8.17" stroke="rgba(18, 36, 43, 1)"></path><path d="M404.25 367.5 a12.25 12.25 0 1 0 24.5 0 a12.25 12.25 0 1 0 -24.5 0zM453.25 122.5 a12.25 12.25 0 1 0 24.5 0 a12.25 12.25 0 1 0 -24.5 0z" fill="rgba(18, 36, 43, 1)"></path><path d="M220.5 857.5L24.5 857.5" stroke-width="8.17" stroke="rgba(18, 36, 43, 1)"></path><path d="M208.25 857.5 a12.25 12.25 0 1 0 24.5 0 a12.25 12.25 0 1 0 -24.5 0zM12.25 857.5 a12.25 12.25 0 1 0 24.5 0 a12.25 12.25 0 1 0 -24.5 0z" fill="rgba(18, 36, 43, 1)"></path><path d="M367.5 2180.5L318.5 2180.5L24.5 2474.5L24.5 2523.5" stroke-width="8.17" stroke="rgba(18, 36, 43, 1)"></path><path d="M355.25 2180.5 a12.25 12.25 0 1 0 24.5 0 a12.25 12.25 0 1 0 -24.5 0zM12.25 2523.5 a12.25 12.25 0 1 0 24.5 0 a12.25 12.25 0 1 0 -24.5 0z" fill="rgba(18, 36, 43, 1)"></path><path d="M1053.5 1690.5L1102.5 1690.5L1151.5 1641.5" stroke-width="8.17" stroke="rgba(18, 36, 43, 1)"></path><path d="M1041.25 1690.5 a12.25 12.25 0 1 0 24.5 0 a12.25 12.25 0 1 0 -24.5 0zM1139.25 1641.5 a12.25 12.25 0 1 0 24.5 0 a12.25 12.25 0 1 0 -24.5 0z" fill="rgba(18, 36, 43, 1)"></path><path d="M759.5 1347.5L759.5 1249.5L612.5 1102.5L563.5 1102.5L465.5 1200.5" stroke-width="8.17" stroke="rgba(18, 36, 43, 1)"></path><path d="M747.25 1347.5 a12.25 12.25 0 1 0 24.5 0 a12.25 12.25 0 1 0 -24.5 0zM453.25 1200.5 a12.25 12.25 0 1 0 24.5 0 a12.25 12.25 0 1 0 -24.5 0z" fill="rgba(18, 36, 43, 1)"></path><path d="M367.5 612.5L269.5 514.5L269.5 367.5L318.5 318.5L367.5 318.5" stroke-width="8.17" stroke="rgba(18, 36, 43, 1)"></path><path d="M355.25 612.5 a12.25 12.25 0 1 0 24.5 0 a12.25 12.25 0 1 0 -24.5 0zM355.25 318.5 a12.25 12.25 0 1 0 24.5 0 a12.25 12.25 0 1 0 -24.5 0z" fill="rgba(18, 36, 43, 1)"></path><path d="M1151.5 2621.5L1200.5 2572.5L1200.5 2474.5L1396.5 2278.5" stroke-width="8.17" stroke="rgba(18, 36, 43, 1)"></path><path d="M1139.25 2621.5 a12.25 12.25 0 1 0 24.5 0 a12.25 12.25 0 1 0 -24.5 0zM1384.25 2278.5 a12.25 12.25 0 1 0 24.5 0 a12.25 12.25 0 1 0 -24.5 0z" fill="rgba(18, 36, 43, 1)"></path><path d="M1445.5 2621.5L1396.5 2621.5L1347.5 2670.5" stroke-width="8.17" stroke="rgba(18, 36, 43, 1)"></path><path d="M1433.25 2621.5 a12.25 12.25 0 1 0 24.5 0 a12.25 12.25 0 1 0 -24.5 0zM1335.25 2670.5 a12.25 12.25 0 1 0 24.5 0 a12.25 12.25 0 1 0 -24.5 0z" fill="rgba(18, 36, 43, 1)"></path><path d="M857.5 563.5L906.5 612.5L906.5 661.5L857.5 710.5L857.5 1004.5" stroke-width="8.17" stroke="rgba(18, 36, 43, 1)"></path><path d="M845.25 563.5 a12.25 12.25 0 1 0 24.5 0 a12.25 12.25 0 1 0 -24.5 0zM845.25 1004.5 a12.25 12.25 0 1 0 24.5 0 a12.25 12.25 0 1 0 -24.5 0z" fill="rgba(18, 36, 43, 1)"></path><path d="M416.5 465.5L465.5 514.5L514.5 514.5L661.5 367.5L661.5 269.5L857.5 73.5L906.5 73.5" stroke-width="8.17" stroke="rgba(18, 36, 43, 1)"></path><path d="M404.25 465.5 a12.25 12.25 0 1 0 24.5 0 a12.25 12.25 0 1 0 -24.5 0zM894.25 73.5 a12.25 12.25 0 1 0 24.5 0 a12.25 12.25 0 1 0 -24.5 0z" fill="rgba(18, 36, 43, 1)"></path><path d="M1102.5 122.5L1004.5 122.5L906.5 220.5L906.5 318.5L1004.5 416.5L1396.5 416.5" stroke-width="8.17" stroke="rgba(18, 36, 43, 1)"></path><path d="M1090.25 122.5 a12.25 12.25 0 1 0 24.5 0 a12.25 12.25 0 1 0 -24.5 0zM1384.25 416.5 a12.25 12.25 0 1 0 24.5 0 a12.25 12.25 0 1 0 -24.5 0z" fill="rgba(18, 36, 43, 1)"></path><path d="M906.5 1837.5L955.5 1837.5L1053.5 1739.5" stroke-width="8.17" stroke="rgba(18, 36, 43, 1)"></path><path d="M894.25 1837.5 a12.25 12.25 0 1 0 24.5 0 a12.25 12.25 0 1 0 -24.5 0zM1041.25 1739.5 a12.25 12.25 0 1 0 24.5 0 a12.25 12.25 0 1 0 -24.5 0z" fill="rgba(18, 36, 43, 1)"></path><path d="M73.5 2131.5L220.5 1984.5L220.5 1935.5L171.5 1886.5" stroke-width="8.17" stroke="rgba(18, 36, 43, 1)"></path><path d="M61.25 2131.5 a12.25 12.25 0 1 0 24.5 0 a12.25 12.25 0 1 0 -24.5 0zM159.25 1886.5 a12.25 12.25 0 1 0 24.5 0 a12.25 12.25 0 1 0 -24.5 0z" fill="rgba(18, 36, 43, 1)"></path><path d="M1053.5 318.5L1053.5 171.5" stroke-width="8.17" stroke="rgba(18, 36, 43, 1)"></path><path d="M1041.25 318.5 a12.25 12.25 0 1 0 24.5 0 a12.25 12.25 0 1 0 -24.5 0zM1041.25 171.5 a12.25 12.25 0 1 0 24.5 0 a12.25 12.25 0 1 0 -24.5 0z" fill="rgba(18, 36, 43, 1)"></path><path d="M1200.5 906.5L1249.5 857.5L1298.5 857.5" stroke-width="8.17" stroke="rgba(18, 36, 43, 1)"></path><path d="M1188.25 906.5 a12.25 12.25 0 1 0 24.5 0 a12.25 12.25 0 1 0 -24.5 0zM1286.25 857.5 a12.25 12.25 0 1 0 24.5 0 a12.25 12.25 0 1 0 -24.5 0z" fill="rgba(18, 36, 43, 1)"></path><path d="M1102.5 2866.5L955.5 3013.5L759.5 3013.5" stroke-width="8.17" stroke="rgba(18, 36, 43, 1)"></path><path d="M1090.25 2866.5 a12.25 12.25 0 1 0 24.5 0 a12.25 12.25 0 1 0 -24.5 0zM747.25 3013.5 a12.25 12.25 0 1 0 24.5 0 a12.25 12.25 0 1 0 -24.5 0z" fill="rgba(18, 36, 43, 1)"></path><path d="M1347.5 563.5L1347.5 465.5" stroke-width="8.17" stroke="rgba(18, 36, 43, 1)"></path><path d="M1335.25 563.5 a12.25 12.25 0 1 0 24.5 0 a12.25 12.25 0 1 0 -24.5 0zM1335.25 465.5 a12.25 12.25 0 1 0 24.5 0 a12.25 12.25 0 1 0 -24.5 0z" fill="rgba(18, 36, 43, 1)"></path><path d="M1151.5 906.5L1249.5 808.5L1249.5 710.5L1151.5 612.5L1102.5 612.5L1053.5 661.5" stroke-width="8.17" stroke="rgba(18, 36, 43, 1)"></path><path d="M1139.25 906.5 a12.25 12.25 0 1 0 24.5 0 a12.25 12.25 0 1 0 -24.5 0zM1041.25 661.5 a12.25 12.25 0 1 0 24.5 0 a12.25 12.25 0 1 0 -24.5 0z" fill="rgba(18, 36, 43, 1)"></path><path d="M661.5 2817.5L563.5 2915.5L563.5 2964.5" stroke-width="8.17" stroke="rgba(18, 36, 43, 1)"></path><path d="M649.25 2817.5 a12.25 12.25 0 1 0 24.5 0 a12.25 12.25 0 1 0 -24.5 0zM551.25 2964.5 a12.25 12.25 0 1 0 24.5 0 a12.25 12.25 0 1 0 -24.5 0z" fill="rgba(18, 36, 43, 1)"></path><path d="M24.5 955.5L24.5 1200.5" stroke-width="8.17" stroke="rgba(18, 36, 43, 1)"></path><path d="M12.25 955.5 a12.25 12.25 0 1 0 24.5 0 a12.25 12.25 0 1 0 -24.5 0zM12.25 1200.5 a12.25 12.25 0 1 0 24.5 0 a12.25 12.25 0 1 0 -24.5 0z" fill="rgba(18, 36, 43, 1)"></path><path d="M1347.5 1641.5L1347.5 1788.5" stroke-width="8.17" stroke="rgba(18, 36, 43, 1)"></path><path d="M1335.25 1641.5 a12.25 12.25 0 1 0 24.5 0 a12.25 12.25 0 1 0 -24.5 0zM1335.25 1788.5 a12.25 12.25 0 1 0 24.5 0 a12.25 12.25 0 1 0 -24.5 0z" fill="rgba(18, 36, 43, 1)"></path><path d="M1102.5 2964.5L1053.5 2964.5L1004.5 3013.5" stroke-width="8.17" stroke="rgba(18, 36, 43, 1)"></path><path d="M1090.25 2964.5 a12.25 12.25 0 1 0 24.5 0 a12.25 12.25 0 1 0 -24.5 0zM992.25 3013.5 a12.25 12.25 0 1 0 24.5 0 a12.25 12.25 0 1 0 -24.5 0z" fill="rgba(18, 36, 43, 1)"></path><path d="M269.5 2719.5L220.5 2719.5L171.5 2768.5L171.5 2866.5" stroke-width="8.17" stroke="rgba(18, 36, 43, 1)"></path><path d="M257.25 2719.5 a12.25 12.25 0 1 0 24.5 0 a12.25 12.25 0 1 0 -24.5 0zM159.25 2866.5 a12.25 12.25 0 1 0 24.5 0 a12.25 12.25 0 1 0 -24.5 0z" fill="rgba(18, 36, 43, 1)"></path><path d="M1347.5 2866.5L1445.5 2768.5" stroke-width="8.17" stroke="rgba(18, 36, 43, 1)"></path><path d="M1335.25 2866.5 a12.25 12.25 0 1 0 24.5 0 a12.25 12.25 0 1 0 -24.5 0zM1433.25 2768.5 a12.25 12.25 0 1 0 24.5 0 a12.25 12.25 0 1 0 -24.5 0z" fill="rgba(18, 36, 43, 1)"></path><path d="M367.5 1396.5L24.5 1739.5L24.5 1984.5" stroke-width="8.17" stroke="rgba(18, 36, 43, 1)"></path><path d="M355.25 1396.5 a12.25 12.25 0 1 0 24.5 0 a12.25 12.25 0 1 0 -24.5 0zM12.25 1984.5 a12.25 12.25 0 1 0 24.5 0 a12.25 12.25 0 1 0 -24.5 0z" fill="rgba(18, 36, 43, 1)"></path><path d="M661.5 2523.5L220.5 2964.5L171.5 2964.5" stroke-width="8.17" stroke="rgba(18, 36, 43, 1)"></path><path d="M649.25 2523.5 a12.25 12.25 0 1 0 24.5 0 a12.25 12.25 0 1 0 -24.5 0zM159.25 2964.5 a12.25 12.25 0 1 0 24.5 0 a12.25 12.25 0 1 0 -24.5 0z" fill="rgba(18, 36, 43, 1)"></path><path d="M514.5 759.5L514.5 857.5" stroke-width="8.17" stroke="rgba(18, 36, 43, 1)"></path><path d="M502.25 759.5 a12.25 12.25 0 1 0 24.5 0 a12.25 12.25 0 1 0 -24.5 0zM502.25 857.5 a12.25 12.25 0 1 0 24.5 0 a12.25 12.25 0 1 0 -24.5 0z" fill="rgba(18, 36, 43, 1)"></path><path d="M220.5 661.5L220.5 808.5L269.5 857.5" stroke-width="8.17" stroke="rgba(18, 36, 43, 1)"></path><path d="M208.25 661.5 a12.25 12.25 0 1 0 24.5 0 a12.25 12.25 0 1 0 -24.5 0zM257.25 857.5 a12.25 12.25 0 1 0 24.5 0 a12.25 12.25 0 1 0 -24.5 0z" fill="rgba(18, 36, 43, 1)"></path><path d="M269.5 1788.5L269.5 1886.5L318.5 1935.5" stroke-width="8.17" stroke="rgba(18, 36, 43, 1)"></path><path d="M257.25 1788.5 a12.25 12.25 0 1 0 24.5 0 a12.25 12.25 0 1 0 -24.5 0zM306.25 1935.5 a12.25 12.25 0 1 0 24.5 0 a12.25 12.25 0 1 0 -24.5 0z" fill="rgba(18, 36, 43, 1)"></path><path d="M759.5 1837.5L1053.5 1543.5" stroke-width="8.17" stroke="rgba(18, 36, 43, 1)"></path><path d="M747.25 1837.5 a12.25 12.25 0 1 0 24.5 0 a12.25 12.25 0 1 0 -24.5 0zM1041.25 1543.5 a12.25 12.25 0 1 0 24.5 0 a12.25 12.25 0 1 0 -24.5 0z" fill="rgba(18, 36, 43, 1)"></path><path d="M220.5 563.5L269.5 563.5L367.5 661.5" stroke-width="8.17" stroke="rgba(18, 36, 43, 1)"></path><path d="M208.25 563.5 a12.25 12.25 0 1 0 24.5 0 a12.25 12.25 0 1 0 -24.5 0zM355.25 661.5 a12.25 12.25 0 1 0 24.5 0 a12.25 12.25 0 1 0 -24.5 0z" fill="rgba(18, 36, 43, 1)"></path><path d="M171.5 1494.5L171.5 1347.5L269.5 1249.5" stroke-width="8.17" stroke="rgba(18, 36, 43, 1)"></path><path d="M159.25 1494.5 a12.25 12.25 0 1 0 24.5 0 a12.25 12.25 0 1 0 -24.5 0zM257.25 1249.5 a12.25 12.25 0 1 0 24.5 0 a12.25 12.25 0 1 0 -24.5 0z" fill="rgba(18, 36, 43, 1)"></path><path d="M73.5 1494.5L73.5 1641.5L24.5 1690.5" stroke-width="8.17" stroke="rgba(18, 36, 43, 1)"></path><path d="M61.25 1494.5 a12.25 12.25 0 1 0 24.5 0 a12.25 12.25 0 1 0 -24.5 0zM12.25 1690.5 a12.25 12.25 0 1 0 24.5 0 a12.25 12.25 0 1 0 -24.5 0z" fill="rgba(18, 36, 43, 1)"></path><path d="M955.5 1053.5L955.5 710.5" stroke-width="8.17" stroke="rgba(18, 36, 43, 1)"></path><path d="M943.25 1053.5 a12.25 12.25 0 1 0 24.5 0 a12.25 12.25 0 1 0 -24.5 0zM943.25 710.5 a12.25 12.25 0 1 0 24.5 0 a12.25 12.25 0 1 0 -24.5 0z" fill="rgba(18, 36, 43, 1)"></path><path d="M661.5 2719.5L612.5 2719.5L416.5 2915.5L416.5 3013.5" stroke-width="8.17" stroke="rgba(18, 36, 43, 1)"></path><path d="M649.25 2719.5 a12.25 12.25 0 1 0 24.5 0 a12.25 12.25 0 1 0 -24.5 0zM404.25 3013.5 a12.25 12.25 0 1 0 24.5 0 a12.25 12.25 0 1 0 -24.5 0z" fill="rgba(18, 36, 43, 1)"></path><path d="M416.5 24.5L367.5 73.5L318.5 73.5L269.5 24.5L73.5 24.5" stroke-width="8.17" stroke="rgba(18, 36, 43, 1)"></path><path d="M404.25 24.5 a12.25 12.25 0 1 0 24.5 0 a12.25 12.25 0 1 0 -24.5 0zM61.25 24.5 a12.25 12.25 0 1 0 24.5 0 a12.25 12.25 0 1 0 -24.5 0z" fill="rgba(18, 36, 43, 1)"></path><path d="M1200.5 171.5L1102.5 171.5" stroke-width="8.17" stroke="rgba(18, 36, 43, 1)"></path><path d="M1188.25 171.5 a12.25 12.25 0 1 0 24.5 0 a12.25 12.25 0 1 0 -24.5 0zM1090.25 171.5 a12.25 12.25 0 1 0 24.5 0 a12.25 12.25 0 1 0 -24.5 0z" fill="rgba(18, 36, 43, 1)"></path><path d="M1347.5 2768.5L1347.5 2817.5L1151.5 3013.5L1053.5 3013.5" stroke-width="8.17" stroke="rgba(18, 36, 43, 1)"></path><path d="M1335.25 2768.5 a12.25 12.25 0 1 0 24.5 0 a12.25 12.25 0 1 0 -24.5 0zM1041.25 3013.5 a12.25 12.25 0 1 0 24.5 0 a12.25 12.25 0 1 0 -24.5 0z" fill="rgba(18, 36, 43, 1)"></path><path d="M612.5 2915.5L759.5 2915.5" stroke-width="8.17" stroke="rgba(18, 36, 43, 1)"></path><path d="M600.25 2915.5 a12.25 12.25 0 1 0 24.5 0 a12.25 12.25 0 1 0 -24.5 0zM747.25 2915.5 a12.25 12.25 0 1 0 24.5 0 a12.25 12.25 0 1 0 -24.5 0z" fill="rgba(18, 36, 43, 1)"></path><path d="M1053.5 2082.5L1200.5 1935.5L1200.5 1739.5" stroke-width="8.17" stroke="rgba(18, 36, 43, 1)"></path><path d="M1041.25 2082.5 a12.25 12.25 0 1 0 24.5 0 a12.25 12.25 0 1 0 -24.5 0zM1188.25 1739.5 a12.25 12.25 0 1 0 24.5 0 a12.25 12.25 0 1 0 -24.5 0z" fill="rgba(18, 36, 43, 1)"></path><path d="M171.5 220.5L73.5 318.5L73.5 367.5" stroke-width="8.17" stroke="rgba(18, 36, 43, 1)"></path><path d="M159.25 220.5 a12.25 12.25 0 1 0 24.5 0 a12.25 12.25 0 1 0 -24.5 0zM61.25 367.5 a12.25 12.25 0 1 0 24.5 0 a12.25 12.25 0 1 0 -24.5 0z" fill="rgba(18, 36, 43, 1)"></path><path d="M367.5 2327.5L367.5 2376.5L318.5 2425.5L269.5 2425.5" stroke-width="8.17" stroke="rgba(18, 36, 43, 1)"></path><path d="M355.25 2327.5 a12.25 12.25 0 1 0 24.5 0 a12.25 12.25 0 1 0 -24.5 0zM257.25 2425.5 a12.25 12.25 0 1 0 24.5 0 a12.25 12.25 0 1 0 -24.5 0z" fill="rgba(18, 36, 43, 1)"></path><path d="M171.5 2670.5L269.5 2670.5L367.5 2572.5L416.5 2572.5" stroke-width="8.17" stroke="rgba(18, 36, 43, 1)"></path><path d="M159.25 2670.5 a12.25 12.25 0 1 0 24.5 0 a12.25 12.25 0 1 0 -24.5 0zM404.25 2572.5 a12.25 12.25 0 1 0 24.5 0 a12.25 12.25 0 1 0 -24.5 0z" fill="rgba(18, 36, 43, 1)"></path><path d="M955.5 2523.5L1053.5 2523.5L1102.5 2474.5L1102.5 2425.5L1053.5 2376.5" stroke-width="8.17" stroke="rgba(18, 36, 43, 1)"></path><path d="M943.25 2523.5 a12.25 12.25 0 1 0 24.5 0 a12.25 12.25 0 1 0 -24.5 0zM1041.25 2376.5 a12.25 12.25 0 1 0 24.5 0 a12.25 12.25 0 1 0 -24.5 0z" fill="rgba(18, 36, 43, 1)"></path><path d="M661.5 857.5L661.5 808.5L612.5 759.5" stroke-width="8.17" stroke="rgba(18, 36, 43, 1)"></path><path d="M649.25 857.5 a12.25 12.25 0 1 0 24.5 0 a12.25 12.25 0 1 0 -24.5 0zM600.25 759.5 a12.25 12.25 0 1 0 24.5 0 a12.25 12.25 0 1 0 -24.5 0z" fill="rgba(18, 36, 43, 1)"></path><path d="M367.5 2719.5L318.5 2719.5L269.5 2768.5L220.5 2768.5" stroke-width="8.17" stroke="rgba(18, 36, 43, 1)"></path><path d="M355.25 2719.5 a12.25 12.25 0 1 0 24.5 0 a12.25 12.25 0 1 0 -24.5 0zM208.25 2768.5 a12.25 12.25 0 1 0 24.5 0 a12.25 12.25 0 1 0 -24.5 0z" fill="rgba(18, 36, 43, 1)"></path><path d="M612.5 563.5L612.5 514.5L710.5 416.5" stroke-width="8.17" stroke="rgba(18, 36, 43, 1)"></path><path d="M600.25 563.5 a12.25 12.25 0 1 0 24.5 0 a12.25 12.25 0 1 0 -24.5 0zM698.25 416.5 a12.25 12.25 0 1 0 24.5 0 a12.25 12.25 0 1 0 -24.5 0z" fill="rgba(18, 36, 43, 1)"></path><path d="M220.5 1690.5L318.5 1592.5L318.5 1543.5" stroke-width="8.17" stroke="rgba(18, 36, 43, 1)"></path><path d="M208.25 1690.5 a12.25 12.25 0 1 0 24.5 0 a12.25 12.25 0 1 0 -24.5 0zM306.25 1543.5 a12.25 12.25 0 1 0 24.5 0 a12.25 12.25 0 1 0 -24.5 0z" fill="rgba(18, 36, 43, 1)"></path><path d="M73.5 1102.5L73.5 906.5" stroke-width="8.17" stroke="rgba(18, 36, 43, 1)"></path><path d="M61.25 1102.5 a12.25 12.25 0 1 0 24.5 0 a12.25 12.25 0 1 0 -24.5 0zM61.25 906.5 a12.25 12.25 0 1 0 24.5 0 a12.25 12.25 0 1 0 -24.5 0z" fill="rgba(18, 36, 43, 1)"></path><path d="M1102.5 857.5L1102.5 661.5" stroke-width="8.17" stroke="rgba(18, 36, 43, 1)"></path><path d="M1090.25 857.5 a12.25 12.25 0 1 0 24.5 0 a12.25 12.25 0 1 0 -24.5 0zM1090.25 661.5 a12.25 12.25 0 1 0 24.5 0 a12.25 12.25 0 1 0 -24.5 0z" fill="rgba(18, 36, 43, 1)"></path><path d="M906.5 2768.5L1053.5 2768.5L1151.5 2670.5" stroke-width="8.17" stroke="rgba(18, 36, 43, 1)"></path><path d="M894.25 2768.5 a12.25 12.25 0 1 0 24.5 0 a12.25 12.25 0 1 0 -24.5 0zM1139.25 2670.5 a12.25 12.25 0 1 0 24.5 0 a12.25 12.25 0 1 0 -24.5 0z" fill="rgba(18, 36, 43, 1)"></path><path d="M1102.5 1053.5L1102.5 906.5" stroke-width="8.17" stroke="rgba(18, 36, 43, 1)"></path><path d="M1090.25 1053.5 a12.25 12.25 0 1 0 24.5 0 a12.25 12.25 0 1 0 -24.5 0zM1090.25 906.5 a12.25 12.25 0 1 0 24.5 0 a12.25 12.25 0 1 0 -24.5 0z" fill="rgba(18, 36, 43, 1)"></path><path d="M1396.5 563.5L1396.5 710.5" stroke-width="8.17" stroke="rgba(18, 36, 43, 1)"></path><path d="M1384.25 563.5 a12.25 12.25 0 1 0 24.5 0 a12.25 12.25 0 1 0 -24.5 0zM1384.25 710.5 a12.25 12.25 0 1 0 24.5 0 a12.25 12.25 0 1 0 -24.5 0z" fill="rgba(18, 36, 43, 1)"></path><path d="M465.5 563.5L318.5 416.5L318.5 367.5" stroke-width="8.17" stroke="rgba(18, 36, 43, 1)"></path><path d="M453.25 563.5 a12.25 12.25 0 1 0 24.5 0 a12.25 12.25 0 1 0 -24.5 0zM306.25 367.5 a12.25 12.25 0 1 0 24.5 0 a12.25 12.25 0 1 0 -24.5 0z" fill="rgba(18, 36, 43, 1)"></path><path d="M416.5 220.5L416.5 269.5L465.5 318.5" stroke-width="8.17" stroke="rgba(18, 36, 43, 1)"></path><path d="M404.25 220.5 a12.25 12.25 0 1 0 24.5 0 a12.25 12.25 0 1 0 -24.5 0zM453.25 318.5 a12.25 12.25 0 1 0 24.5 0 a12.25 12.25 0 1 0 -24.5 0z" fill="rgba(18, 36, 43, 1)"></path><path d="M1347.5 269.5L1298.5 220.5L1151.5 220.5L1102.5 269.5L1102.5 367.5" stroke-width="8.17" stroke="rgba(18, 36, 43, 1)"></path><path d="M1335.25 269.5 a12.25 12.25 0 1 0 24.5 0 a12.25 12.25 0 1 0 -24.5 0zM1090.25 367.5 a12.25 12.25 0 1 0 24.5 0 a12.25 12.25 0 1 0 -24.5 0z" fill="rgba(18, 36, 43, 1)"></path><path d="M220.5 1151.5L269.5 1102.5L318.5 1102.5L416.5 1004.5L416.5 710.5" stroke-width="8.17" stroke="rgba(18, 36, 43, 1)"></path><path d="M208.25 1151.5 a12.25 12.25 0 1 0 24.5 0 a12.25 12.25 0 1 0 -24.5 0zM404.25 710.5 a12.25 12.25 0 1 0 24.5 0 a12.25 12.25 0 1 0 -24.5 0z" fill="rgba(18, 36, 43, 1)"></path><path d="M1151.5 2915.5L1151.5 2768.5" stroke-width="8.17" stroke="rgba(18, 36, 43, 1)"></path><path d="M1139.25 2915.5 a12.25 12.25 0 1 0 24.5 0 a12.25 12.25 0 1 0 -24.5 0zM1139.25 2768.5 a12.25 12.25 0 1 0 24.5 0 a12.25 12.25 0 1 0 -24.5 0z" fill="rgba(18, 36, 43, 1)"></path><path d="M416.5 2082.5L514.5 2082.5" stroke-width="8.17" stroke="rgba(18, 36, 43, 1)"></path><path d="M404.25 2082.5 a12.25 12.25 0 1 0 24.5 0 a12.25 12.25 0 1 0 -24.5 0zM502.25 2082.5 a12.25 12.25 0 1 0 24.5 0 a12.25 12.25 0 1 0 -24.5 0z" fill="rgba(18, 36, 43, 1)"></path><path d="M1151.5 367.5L1151.5 269.5" stroke-width="8.17" stroke="rgba(18, 36, 43, 1)"></path><path d="M1139.25 367.5 a12.25 12.25 0 1 0 24.5 0 a12.25 12.25 0 1 0 -24.5 0zM1139.25 269.5 a12.25 12.25 0 1 0 24.5 0 a12.25 12.25 0 1 0 -24.5 0z" fill="rgba(18, 36, 43, 1)"></path><path d="M73.5 2376.5L24.5 2327.5L24.5 2278.5" stroke-width="8.17" stroke="rgba(18, 36, 43, 1)"></path><path d="M61.25 2376.5 a12.25 12.25 0 1 0 24.5 0 a12.25 12.25 0 1 0 -24.5 0zM12.25 2278.5 a12.25 12.25 0 1 0 24.5 0 a12.25 12.25 0 1 0 -24.5 0z" fill="rgba(18, 36, 43, 1)"></path><path d="M171.5 661.5L171.5 759.5L122.5 808.5L24.5 808.5" stroke-width="8.17" stroke="rgba(18, 36, 43, 1)"></path><path d="M159.25 661.5 a12.25 12.25 0 1 0 24.5 0 a12.25 12.25 0 1 0 -24.5 0zM12.25 808.5 a12.25 12.25 0 1 0 24.5 0 a12.25 12.25 0 1 0 -24.5 0z" fill="rgba(18, 36, 43, 1)"></path><path d="M1053.5 2719.5L1102.5 2670.5L1102.5 2621.5" stroke-width="8.17" stroke="rgba(18, 36, 43, 1)"></path><path d="M1041.25 2719.5 a12.25 12.25 0 1 0 24.5 0 a12.25 12.25 0 1 0 -24.5 0zM1090.25 2621.5 a12.25 12.25 0 1 0 24.5 0 a12.25 12.25 0 1 0 -24.5 0z" fill="rgba(18, 36, 43, 1)"></path><path d="M710.5 2180.5L612.5 2082.5" stroke-width="8.17" stroke="rgba(18, 36, 43, 1)"></path><path d="M698.25 2180.5 a12.25 12.25 0 1 0 24.5 0 a12.25 12.25 0 1 0 -24.5 0zM600.25 2082.5 a12.25 12.25 0 1 0 24.5 0 a12.25 12.25 0 1 0 -24.5 0z" fill="rgba(18, 36, 43, 1)"></path><path d="M612.5 2474.5L514.5 2572.5L514.5 2621.5" stroke-width="8.17" stroke="rgba(18, 36, 43, 1)"></path><path d="M600.25 2474.5 a12.25 12.25 0 1 0 24.5 0 a12.25 12.25 0 1 0 -24.5 0zM502.25 2621.5 a12.25 12.25 0 1 0 24.5 0 a12.25 12.25 0 1 0 -24.5 0z" fill="rgba(18, 36, 43, 1)"></path><path d="M122.5 1445.5L122.5 1592.5" stroke-width="8.17" stroke="rgba(18, 36, 43, 1)"></path><path d="M110.25 1445.5 a12.25 12.25 0 1 0 24.5 0 a12.25 12.25 0 1 0 -24.5 0zM110.25 1592.5 a12.25 12.25 0 1 0 24.5 0 a12.25 12.25 0 1 0 -24.5 0z" fill="rgba(18, 36, 43, 1)"></path><path d="M1200.5 269.5L1200.5 367.5" stroke-width="8.17" stroke="rgba(18, 36, 43, 1)"></path><path d="M1188.25 269.5 a12.25 12.25 0 1 0 24.5 0 a12.25 12.25 0 1 0 -24.5 0zM1188.25 367.5 a12.25 12.25 0 1 0 24.5 0 a12.25 12.25 0 1 0 -24.5 0z" fill="rgba(18, 36, 43, 1)"></path><path d="M1004.5 171.5L1004.5 367.5" stroke-width="8.17" stroke="rgba(18, 36, 43, 1)"></path><path d="M992.25 171.5 a12.25 12.25 0 1 0 24.5 0 a12.25 12.25 0 1 0 -24.5 0zM992.25 367.5 a12.25 12.25 0 1 0 24.5 0 a12.25 12.25 0 1 0 -24.5 0z" fill="rgba(18, 36, 43, 1)"></path><path d="M1249.5 367.5L1347.5 367.5" stroke-width="8.17" stroke="rgba(18, 36, 43, 1)"></path><path d="M1237.25 367.5 a12.25 12.25 0 1 0 24.5 0 a12.25 12.25 0 1 0 -24.5 0zM1335.25 367.5 a12.25 12.25 0 1 0 24.5 0 a12.25 12.25 0 1 0 -24.5 0z" fill="rgba(18, 36, 43, 1)"></path><path d="M857.5 2866.5L955.5 2964.5" stroke-width="8.17" stroke="rgba(18, 36, 43, 1)"></path><path d="M845.25 2866.5 a12.25 12.25 0 1 0 24.5 0 a12.25 12.25 0 1 0 -24.5 0zM943.25 2964.5 a12.25 12.25 0 1 0 24.5 0 a12.25 12.25 0 1 0 -24.5 0z" fill="rgba(18, 36, 43, 1)"></path><path d="M1445.5 1102.5L1347.5 1004.5L1347.5 955.5L1396.5 906.5L1445.5 906.5" stroke-width="8.17" stroke="rgba(18, 36, 43, 1)"></path><path d="M1433.25 1102.5 a12.25 12.25 0 1 0 24.5 0 a12.25 12.25 0 1 0 -24.5 0zM1433.25 906.5 a12.25 12.25 0 1 0 24.5 0 a12.25 12.25 0 1 0 -24.5 0z" fill="rgba(18, 36, 43, 1)"></path><path d="M318.5 2670.5L416.5 2670.5" stroke-width="8.17" stroke="rgba(18, 36, 43, 1)"></path><path d="M306.25 2670.5 a12.25 12.25 0 1 0 24.5 0 a12.25 12.25 0 1 0 -24.5 0zM404.25 2670.5 a12.25 12.25 0 1 0 24.5 0 a12.25 12.25 0 1 0 -24.5 0z" fill="rgba(18, 36, 43, 1)"></path><path d="M563.5 122.5L661.5 122.5L710.5 73.5" stroke-width="8.17" stroke="rgba(18, 36, 43, 1)"></path><path d="M551.25 122.5 a12.25 12.25 0 1 0 24.5 0 a12.25 12.25 0 1 0 -24.5 0zM698.25 73.5 a12.25 12.25 0 1 0 24.5 0 a12.25 12.25 0 1 0 -24.5 0z" fill="rgba(18, 36, 43, 1)"></path><path d="M1151.5 1935.5L1151.5 1837.5" stroke-width="8.17" stroke="rgba(18, 36, 43, 1)"></path><path d="M1139.25 1935.5 a12.25 12.25 0 1 0 24.5 0 a12.25 12.25 0 1 0 -24.5 0zM1139.25 1837.5 a12.25 12.25 0 1 0 24.5 0 a12.25 12.25 0 1 0 -24.5 0z" fill="rgba(18, 36, 43, 1)"></path><path d="M1298.5 24.5L1298.5 73.5L1347.5 122.5L1396.5 122.5" stroke-width="8.17" stroke="rgba(18, 36, 43, 1)"></path><path d="M1286.25 24.5 a12.25 12.25 0 1 0 24.5 0 a12.25 12.25 0 1 0 -24.5 0zM1384.25 122.5 a12.25 12.25 0 1 0 24.5 0 a12.25 12.25 0 1 0 -24.5 0z" fill="rgba(18, 36, 43, 1)"></path><path d="M122.5 906.5L220.5 906.5" stroke-width="8.17" stroke="rgba(18, 36, 43, 1)"></path><path d="M110.25 906.5 a12.25 12.25 0 1 0 24.5 0 a12.25 12.25 0 1 0 -24.5 0zM208.25 906.5 a12.25 12.25 0 1 0 24.5 0 a12.25 12.25 0 1 0 -24.5 0z" fill="rgba(18, 36, 43, 1)"></path><path d="M808.5 1298.5L808.5 1396.5" stroke-width="8.17" stroke="rgba(18, 36, 43, 1)"></path><path d="M796.25 1298.5 a12.25 12.25 0 1 0 24.5 0 a12.25 12.25 0 1 0 -24.5 0zM796.25 1396.5 a12.25 12.25 0 1 0 24.5 0 a12.25 12.25 0 1 0 -24.5 0z" fill="rgba(18, 36, 43, 1)"></path><path d="M367.5 563.5L318.5 514.5L318.5 465.5" stroke-width="8.17" stroke="rgba(18, 36, 43, 1)"></path><path d="M355.25 563.5 a12.25 12.25 0 1 0 24.5 0 a12.25 12.25 0 1 0 -24.5 0zM306.25 465.5 a12.25 12.25 0 1 0 24.5 0 a12.25 12.25 0 1 0 -24.5 0z" fill="rgba(18, 36, 43, 1)"></path><path d="M612.5 1200.5L661.5 1200.5L710.5 1249.5" stroke-width="8.17" stroke="rgba(18, 36, 43, 1)"></path><path d="M600.25 1200.5 a12.25 12.25 0 1 0 24.5 0 a12.25 12.25 0 1 0 -24.5 0zM698.25 1249.5 a12.25 12.25 0 1 0 24.5 0 a12.25 12.25 0 1 0 -24.5 0z" fill="rgba(18, 36, 43, 1)"></path><path d="M612.5 1004.5L710.5 906.5" stroke-width="8.17" stroke="rgba(18, 36, 43, 1)"></path><path d="M600.25 1004.5 a12.25 12.25 0 1 0 24.5 0 a12.25 12.25 0 1 0 -24.5 0zM698.25 906.5 a12.25 12.25 0 1 0 24.5 0 a12.25 12.25 0 1 0 -24.5 0z" fill="rgba(18, 36, 43, 1)"></path><path d="M808.5 2964.5L906.5 2964.5" stroke-width="8.17" stroke="rgba(18, 36, 43, 1)"></path><path d="M796.25 2964.5 a12.25 12.25 0 1 0 24.5 0 a12.25 12.25 0 1 0 -24.5 0zM894.25 2964.5 a12.25 12.25 0 1 0 24.5 0 a12.25 12.25 0 1 0 -24.5 0z" fill="rgba(18, 36, 43, 1)"></path><path d="M73.5 2082.5L171.5 1984.5L171.5 1935.5" stroke-width="8.17" stroke="rgba(18, 36, 43, 1)"></path><path d="M61.25 2082.5 a12.25 12.25 0 1 0 24.5 0 a12.25 12.25 0 1 0 -24.5 0zM159.25 1935.5 a12.25 12.25 0 1 0 24.5 0 a12.25 12.25 0 1 0 -24.5 0z" fill="rgba(18, 36, 43, 1)"></path><path d="M1347.5 1396.5L1298.5 1396.5L1249.5 1347.5L1249.5 1200.5" stroke-width="8.17" stroke="rgba(18, 36, 43, 1)"></path><path d="M1335.25 1396.5 a12.25 12.25 0 1 0 24.5 0 a12.25 12.25 0 1 0 -24.5 0zM1237.25 1200.5 a12.25 12.25 0 1 0 24.5 0 a12.25 12.25 0 1 0 -24.5 0z" fill="rgba(18, 36, 43, 1)"></path><path d="M759.5 2376.5L808.5 2327.5L857.5 2327.5" stroke-width="8.17" stroke="rgba(18, 36, 43, 1)"></path><path d="M747.25 2376.5 a12.25 12.25 0 1 0 24.5 0 a12.25 12.25 0 1 0 -24.5 0zM845.25 2327.5 a12.25 12.25 0 1 0 24.5 0 a12.25 12.25 0 1 0 -24.5 0z" fill="rgba(18, 36, 43, 1)"></path><path d="M318.5 1004.5L318.5 955.5L367.5 906.5" stroke-width="8.17" stroke="rgba(18, 36, 43, 1)"></path><path d="M306.25 1004.5 a12.25 12.25 0 1 0 24.5 0 a12.25 12.25 0 1 0 -24.5 0zM355.25 906.5 a12.25 12.25 0 1 0 24.5 0 a12.25 12.25 0 1 0 -24.5 0z" fill="rgba(18, 36, 43, 1)"></path><path d="M1004.5 465.5L906.5 465.5" stroke-width="8.17" stroke="rgba(18, 36, 43, 1)"></path><path d="M992.25 465.5 a12.25 12.25 0 1 0 24.5 0 a12.25 12.25 0 1 0 -24.5 0zM894.25 465.5 a12.25 12.25 0 1 0 24.5 0 a12.25 12.25 0 1 0 -24.5 0z" fill="rgba(18, 36, 43, 1)"></path><path d="M1200.5 759.5L1200.5 710.5L1151.5 661.5" stroke-width="8.17" stroke="rgba(18, 36, 43, 1)"></path><path d="M1188.25 759.5 a12.25 12.25 0 1 0 24.5 0 a12.25 12.25 0 1 0 -24.5 0zM1139.25 661.5 a12.25 12.25 0 1 0 24.5 0 a12.25 12.25 0 1 0 -24.5 0z" fill="rgba(18, 36, 43, 1)"></path><path d="M661.5 1592.5L563.5 1592.5" stroke-width="8.17" stroke="rgba(18, 36, 43, 1)"></path><path d="M649.25 1592.5 a12.25 12.25 0 1 0 24.5 0 a12.25 12.25 0 1 0 -24.5 0zM551.25 1592.5 a12.25 12.25 0 1 0 24.5 0 a12.25 12.25 0 1 0 -24.5 0z" fill="rgba(18, 36, 43, 1)"></path><path d="M857.5 2768.5L857.5 2572.5" stroke-width="8.17" stroke="rgba(18, 36, 43, 1)"></path><path d="M845.25 2768.5 a12.25 12.25 0 1 0 24.5 0 a12.25 12.25 0 1 0 -24.5 0zM845.25 2572.5 a12.25 12.25 0 1 0 24.5 0 a12.25 12.25 0 1 0 -24.5 0z" fill="rgba(18, 36, 43, 1)"></path><path d="M1249.5 465.5L1298.5 514.5L1298.5 612.5L1347.5 661.5" stroke-width="8.17" stroke="rgba(18, 36, 43, 1)"></path><path d="M1237.25 465.5 a12.25 12.25 0 1 0 24.5 0 a12.25 12.25 0 1 0 -24.5 0zM1335.25 661.5 a12.25 12.25 0 1 0 24.5 0 a12.25 12.25 0 1 0 -24.5 0z" fill="rgba(18, 36, 43, 1)"></path><path d="M73.5 1886.5L73.5 1788.5" stroke-width="8.17" stroke="rgba(18, 36, 43, 1)"></path><path d="M61.25 1886.5 a12.25 12.25 0 1 0 24.5 0 a12.25 12.25 0 1 0 -24.5 0zM61.25 1788.5 a12.25 12.25 0 1 0 24.5 0 a12.25 12.25 0 1 0 -24.5 0z" fill="rgba(18, 36, 43, 1)"></path><path d="M24.5 661.5L24.5 759.5" stroke-width="8.17" stroke="rgba(18, 36, 43, 1)"></path><path d="M12.25 661.5 a12.25 12.25 0 1 0 24.5 0 a12.25 12.25 0 1 0 -24.5 0zM12.25 759.5 a12.25 12.25 0 1 0 24.5 0 a12.25 12.25 0 1 0 -24.5 0z" fill="rgba(18, 36, 43, 1)"></path><path d="M318.5 1053.5L220.5 1053.5" stroke-width="8.17" stroke="rgba(18, 36, 43, 1)"></path><path d="M306.25 1053.5 a12.25 12.25 0 1 0 24.5 0 a12.25 12.25 0 1 0 -24.5 0zM208.25 1053.5 a12.25 12.25 0 1 0 24.5 0 a12.25 12.25 0 1 0 -24.5 0z" fill="rgba(18, 36, 43, 1)"></path><path d="M661.5 2180.5L612.5 2131.5L563.5 2131.5" stroke-width="8.17" stroke="rgba(18, 36, 43, 1)"></path><path d="M649.25 2180.5 a12.25 12.25 0 1 0 24.5 0 a12.25 12.25 0 1 0 -24.5 0zM551.25 2131.5 a12.25 12.25 0 1 0 24.5 0 a12.25 12.25 0 1 0 -24.5 0z" fill="rgba(18, 36, 43, 1)"></path><path d="M416.5 1543.5L367.5 1592.5L367.5 1641.5" stroke-width="8.17" stroke="rgba(18, 36, 43, 1)"></path><path d="M404.25 1543.5 a12.25 12.25 0 1 0 24.5 0 a12.25 12.25 0 1 0 -24.5 0zM355.25 1641.5 a12.25 12.25 0 1 0 24.5 0 a12.25 12.25 0 1 0 -24.5 0z" fill="rgba(18, 36, 43, 1)"></path><path d="M612.5 808.5L612.5 906.5" stroke-width="8.17" stroke="rgba(18, 36, 43, 1)"></path><path d="M600.25 808.5 a12.25 12.25 0 1 0 24.5 0 a12.25 12.25 0 1 0 -24.5 0zM600.25 906.5 a12.25 12.25 0 1 0 24.5 0 a12.25 12.25 0 1 0 -24.5 0z" fill="rgba(18, 36, 43, 1)"></path><path d="M808.5 2131.5L1004.5 2131.5" stroke-width="8.17" stroke="rgba(18, 36, 43, 1)"></path><path d="M796.25 2131.5 a12.25 12.25 0 1 0 24.5 0 a12.25 12.25 0 1 0 -24.5 0zM992.25 2131.5 a12.25 12.25 0 1 0 24.5 0 a12.25 12.25 0 1 0 -24.5 0z" fill="rgba(18, 36, 43, 1)"></path><path d="M220.5 514.5L220.5 416.5" stroke-width="8.17" stroke="rgba(18, 36, 43, 1)"></path><path d="M208.25 514.5 a12.25 12.25 0 1 0 24.5 0 a12.25 12.25 0 1 0 -24.5 0zM208.25 416.5 a12.25 12.25 0 1 0 24.5 0 a12.25 12.25 0 1 0 -24.5 0z" fill="rgba(18, 36, 43, 1)"></path><path d="M710.5 2964.5L612.5 2964.5" stroke-width="8.17" stroke="rgba(18, 36, 43, 1)"></path><path d="M698.25 2964.5 a12.25 12.25 0 1 0 24.5 0 a12.25 12.25 0 1 0 -24.5 0zM600.25 2964.5 a12.25 12.25 0 1 0 24.5 0 a12.25 12.25 0 1 0 -24.5 0z" fill="rgba(18, 36, 43, 1)"></path><path d="M367.5 1788.5L416.5 1837.5L416.5 1935.5" stroke-width="8.17" stroke="rgba(18, 36, 43, 1)"></path><path d="M355.25 1788.5 a12.25 12.25 0 1 0 24.5 0 a12.25 12.25 0 1 0 -24.5 0zM404.25 1935.5 a12.25 12.25 0 1 0 24.5 0 a12.25 12.25 0 1 0 -24.5 0z" fill="rgba(18, 36, 43, 1)"></path><path d="M955.5 2719.5L906.5 2670.5L906.5 2621.5" stroke-width="8.17" stroke="rgba(18, 36, 43, 1)"></path><path d="M943.25 2719.5 a12.25 12.25 0 1 0 24.5 0 a12.25 12.25 0 1 0 -24.5 0zM894.25 2621.5 a12.25 12.25 0 1 0 24.5 0 a12.25 12.25 0 1 0 -24.5 0z" fill="rgba(18, 36, 43, 1)"></path><path d="M1445.5 2131.5L1445.5 2229.5" stroke-width="8.17" stroke="rgba(18, 36, 43, 1)"></path><path d="M1433.25 2131.5 a12.25 12.25 0 1 0 24.5 0 a12.25 12.25 0 1 0 -24.5 0zM1433.25 2229.5 a12.25 12.25 0 1 0 24.5 0 a12.25 12.25 0 1 0 -24.5 0z" fill="rgba(18, 36, 43, 1)"></path><path d="M367.5 1837.5L318.5 1788.5L318.5 1739.5" stroke-width="8.17" stroke="rgba(18, 36, 43, 1)"></path><path d="M355.25 1837.5 a12.25 12.25 0 1 0 24.5 0 a12.25 12.25 0 1 0 -24.5 0zM306.25 1739.5 a12.25 12.25 0 1 0 24.5 0 a12.25 12.25 0 1 0 -24.5 0z" fill="rgba(18, 36, 43, 1)"></path><path d="M1396.5 1445.5L1347.5 1494.5L1347.5 1592.5" stroke-width="8.17" stroke="rgba(18, 36, 43, 1)"></path><path d="M1384.25 1445.5 a12.25 12.25 0 1 0 24.5 0 a12.25 12.25 0 1 0 -24.5 0zM1335.25 1592.5 a12.25 12.25 0 1 0 24.5 0 a12.25 12.25 0 1 0 -24.5 0z" fill="rgba(18, 36, 43, 1)"></path></g></g><defs><mask id="SvgjsMask1016"><rect width="1440" height="3000" fill="#ffffff"></rect></mask><mask id="SvgjsMask1017"><rect width="1440" height="3000" fill="white"></rect><path d="M459.37 2229.5 a6.13 6.13 0 1 0 12.26 0 a6.13 6.13 0 1 0 -12.26 0zM1292.37 1837.5 a6.13 6.13 0 1 0 12.26 0 a6.13 6.13 0 1 0 -12.26 0z" fill="black"></path><path d="M18.37 465.5 a6.13 6.13 0 1 0 12.26 0 a6.13 6.13 0 1 0 -12.26 0zM18.37 24.5 a6.13 6.13 0 1 0 12.26 0 a6.13 6.13 0 1 0 -12.26 0z" fill="black"></path><path d="M1096.37 1347.5 a6.13 6.13 0 1 0 12.26 0 a6.13 6.13 0 1 0 -12.26 0zM165.37 2278.5 a6.13 6.13 0 1 0 12.26 0 a6.13 6.13 0 1 0 -12.26 0z" fill="black"></path><path d="M410.37 1984.5 a6.13 6.13 0 1 0 12.26 0 a6.13 6.13 0 1 0 -12.26 0zM18.37 2229.5 a6.13 6.13 0 1 0 12.26 0 a6.13 6.13 0 1 0 -12.26 0z" fill="black"></path><path d="M851.37 1984.5 a6.13 6.13 0 1 0 12.26 0 a6.13 6.13 0 1 0 -12.26 0zM1194.37 1053.5 a6.13 6.13 0 1 0 12.26 0 a6.13 6.13 0 1 0 -12.26 0z" fill="black"></path><path d="M1439.37 220.5 a6.13 6.13 0 1 0 12.26 0 a6.13 6.13 0 1 0 -12.26 0zM1439.37 24.5 a6.13 6.13 0 1 0 12.26 0 a6.13 6.13 0 1 0 -12.26 0z" fill="black"></path><path d="M1292.37 2229.5 a6.13 6.13 0 1 0 12.26 0 a6.13 6.13 0 1 0 -12.26 0zM361.37 2915.5 a6.13 6.13 0 1 0 12.26 0 a6.13 6.13 0 1 0 -12.26 0z" fill="black"></path><path d="M851.37 2180.5 a6.13 6.13 0 1 0 12.26 0 a6.13 6.13 0 1 0 -12.26 0zM1243.37 1396.5 a6.13 6.13 0 1 0 12.26 0 a6.13 6.13 0 1 0 -12.26 0z" fill="black"></path><path d="M753.37 416.5 a6.13 6.13 0 1 0 12.26 0 a6.13 6.13 0 1 0 -12.26 0zM1145.37 1347.5 a6.13 6.13 0 1 0 12.26 0 a6.13 6.13 0 1 0 -12.26 0z" fill="black"></path><path d="M1341.37 2131.5 a6.13 6.13 0 1 0 12.26 0 a6.13 6.13 0 1 0 -12.26 0zM1096.37 2180.5 a6.13 6.13 0 1 0 12.26 0 a6.13 6.13 0 1 0 -12.26 0z" fill="black"></path><path d="M1243.37 2523.5 a6.13 6.13 0 1 0 12.26 0 a6.13 6.13 0 1 0 -12.26 0zM1390.37 1592.5 a6.13 6.13 0 1 0 12.26 0 a6.13 6.13 0 1 0 -12.26 0z" fill="black"></path><path d="M1341.37 2180.5 a6.13 6.13 0 1 0 12.26 0 a6.13 6.13 0 1 0 -12.26 0zM1145.37 2180.5 a6.13 6.13 0 1 0 12.26 0 a6.13 6.13 0 1 0 -12.26 0z" fill="black"></path><path d="M704.37 661.5 a6.13 6.13 0 1 0 12.26 0 a6.13 6.13 0 1 0 -12.26 0zM1047.37 1347.5 a6.13 6.13 0 1 0 12.26 0 a6.13 6.13 0 1 0 -12.26 0z" fill="black"></path><path d="M1439.37 857.5 a6.13 6.13 0 1 0 12.26 0 a6.13 6.13 0 1 0 -12.26 0zM1243.37 24.5 a6.13 6.13 0 1 0 12.26 0 a6.13 6.13 0 1 0 -12.26 0z" fill="black"></path><path d="M704.37 2719.5 a6.13 6.13 0 1 0 12.26 0 a6.13 6.13 0 1 0 -12.26 0zM802.37 2523.5 a6.13 6.13 0 1 0 12.26 0 a6.13 6.13 0 1 0 -12.26 0z" fill="black"></path><path d="M1341.37 2719.5 a6.13 6.13 0 1 0 12.26 0 a6.13 6.13 0 1 0 -12.26 0zM1439.37 2719.5 a6.13 6.13 0 1 0 12.26 0 a6.13 6.13 0 1 0 -12.26 0z" fill="black"></path><path d="M1096.37 465.5 a6.13 6.13 0 1 0 12.26 0 a6.13 6.13 0 1 0 -12.26 0zM1145.37 1298.5 a6.13 6.13 0 1 0 12.26 0 a6.13 6.13 0 1 0 -12.26 0z" fill="black"></path><path d="M1292.37 2327.5 a6.13 6.13 0 1 0 12.26 0 a6.13 6.13 0 1 0 -12.26 0zM1243.37 2327.5 a6.13 6.13 0 1 0 12.26 0 a6.13 6.13 0 1 0 -12.26 0z" fill="black"></path><path d="M361.37 1543.5 a6.13 6.13 0 1 0 12.26 0 a6.13 6.13 0 1 0 -12.26 0zM998.37 1396.5 a6.13 6.13 0 1 0 12.26 0 a6.13 6.13 0 1 0 -12.26 0z" fill="black"></path><path d="M1292.37 1151.5 a6.13 6.13 0 1 0 12.26 0 a6.13 6.13 0 1 0 -12.26 0zM1439.37 2082.5 a6.13 6.13 0 1 0 12.26 0 a6.13 6.13 0 1 0 -12.26 0z" fill="black"></path><path d="M900.37 1004.5 a6.13 6.13 0 1 0 12.26 0 a6.13 6.13 0 1 0 -12.26 0zM1096.37 514.5 a6.13 6.13 0 1 0 12.26 0 a6.13 6.13 0 1 0 -12.26 0z" fill="black"></path><path d="M312.37 906.5 a6.13 6.13 0 1 0 12.26 0 a6.13 6.13 0 1 0 -12.26 0zM1096.37 24.5 a6.13 6.13 0 1 0 12.26 0 a6.13 6.13 0 1 0 -12.26 0z" fill="black"></path><path d="M67.37 759.5 a6.13 6.13 0 1 0 12.26 0 a6.13 6.13 0 1 0 -12.26 0zM704.37 24.5 a6.13 6.13 0 1 0 12.26 0 a6.13 6.13 0 1 0 -12.26 0z" fill="black"></path><path d="M949.37 2033.5 a6.13 6.13 0 1 0 12.26 0 a6.13 6.13 0 1 0 -12.26 0zM1194.37 1690.5 a6.13 6.13 0 1 0 12.26 0 a6.13 6.13 0 1 0 -12.26 0z" fill="black"></path><path d="M361.37 1298.5 a6.13 6.13 0 1 0 12.26 0 a6.13 6.13 0 1 0 -12.26 0zM704.37 1053.5 a6.13 6.13 0 1 0 12.26 0 a6.13 6.13 0 1 0 -12.26 0z" fill="black"></path><path d="M949.37 2572.5 a6.13 6.13 0 1 0 12.26 0 a6.13 6.13 0 1 0 -12.26 0zM1194.37 2327.5 a6.13 6.13 0 1 0 12.26 0 a6.13 6.13 0 1 0 -12.26 0z" fill="black"></path><path d="M263.37 1396.5 a6.13 6.13 0 1 0 12.26 0 a6.13 6.13 0 1 0 -12.26 0zM557.37 563.5 a6.13 6.13 0 1 0 12.26 0 a6.13 6.13 0 1 0 -12.26 0z" fill="black"></path><path d="M1047.37 514.5 a6.13 6.13 0 1 0 12.26 0 a6.13 6.13 0 1 0 -12.26 0zM802.37 514.5 a6.13 6.13 0 1 0 12.26 0 a6.13 6.13 0 1 0 -12.26 0z" fill="black"></path><path d="M851.37 2082.5 a6.13 6.13 0 1 0 12.26 0 a6.13 6.13 0 1 0 -12.26 0zM900.37 1984.5 a6.13 6.13 0 1 0 12.26 0 a6.13 6.13 0 1 0 -12.26 0z" fill="black"></path><path d="M410.37 416.5 a6.13 6.13 0 1 0 12.26 0 a6.13 6.13 0 1 0 -12.26 0zM851.37 24.5 a6.13 6.13 0 1 0 12.26 0 a6.13 6.13 0 1 0 -12.26 0z" fill="black"></path><path d="M361.37 2425.5 a6.13 6.13 0 1 0 12.26 0 a6.13 6.13 0 1 0 -12.26 0zM949.37 2278.5 a6.13 6.13 0 1 0 12.26 0 a6.13 6.13 0 1 0 -12.26 0z" fill="black"></path><path d="M361.37 1886.5 a6.13 6.13 0 1 0 12.26 0 a6.13 6.13 0 1 0 -12.26 0zM18.37 2180.5 a6.13 6.13 0 1 0 12.26 0 a6.13 6.13 0 1 0 -12.26 0z" fill="black"></path><path d="M312.37 1690.5 a6.13 6.13 0 1 0 12.26 0 a6.13 6.13 0 1 0 -12.26 0zM851.37 1543.5 a6.13 6.13 0 1 0 12.26 0 a6.13 6.13 0 1 0 -12.26 0z" fill="black"></path><path d="M410.37 2523.5 a6.13 6.13 0 1 0 12.26 0 a6.13 6.13 0 1 0 -12.26 0zM900.37 2327.5 a6.13 6.13 0 1 0 12.26 0 a6.13 6.13 0 1 0 -12.26 0z" fill="black"></path><path d="M900.37 1347.5 a6.13 6.13 0 1 0 12.26 0 a6.13 6.13 0 1 0 -12.26 0zM361.37 1249.5 a6.13 6.13 0 1 0 12.26 0 a6.13 6.13 0 1 0 -12.26 0z" fill="black"></path><path d="M214.37 2817.5 a6.13 6.13 0 1 0 12.26 0 a6.13 6.13 0 1 0 -12.26 0zM18.37 3013.5 a6.13 6.13 0 1 0 12.26 0 a6.13 6.13 0 1 0 -12.26 0z" fill="black"></path><path d="M557.37 171.5 a6.13 6.13 0 1 0 12.26 0 a6.13 6.13 0 1 0 -12.26 0zM802.37 24.5 a6.13 6.13 0 1 0 12.26 0 a6.13 6.13 0 1 0 -12.26 0z" fill="black"></path><path d="M1292.37 808.5 a6.13 6.13 0 1 0 12.26 0 a6.13 6.13 0 1 0 -12.26 0zM998.37 1151.5 a6.13 6.13 0 1 0 12.26 0 a6.13 6.13 0 1 0 -12.26 0z" fill="black"></path><path d="M361.37 2768.5 a6.13 6.13 0 1 0 12.26 0 a6.13 6.13 0 1 0 -12.26 0zM753.37 2474.5 a6.13 6.13 0 1 0 12.26 0 a6.13 6.13 0 1 0 -12.26 0z" fill="black"></path><path d="M1390.37 367.5 a6.13 6.13 0 1 0 12.26 0 a6.13 6.13 0 1 0 -12.26 0zM1145.37 24.5 a6.13 6.13 0 1 0 12.26 0 a6.13 6.13 0 1 0 -12.26 0z" fill="black"></path><path d="M410.37 1445.5 a6.13 6.13 0 1 0 12.26 0 a6.13 6.13 0 1 0 -12.26 0zM508.37 1396.5 a6.13 6.13 0 1 0 12.26 0 a6.13 6.13 0 1 0 -12.26 0z" fill="black"></path><path d="M67.37 2719.5 a6.13 6.13 0 1 0 12.26 0 a6.13 6.13 0 1 0 -12.26 0zM410.37 2474.5 a6.13 6.13 0 1 0 12.26 0 a6.13 6.13 0 1 0 -12.26 0z" fill="black"></path><path d="M361.37 1445.5 a6.13 6.13 0 1 0 12.26 0 a6.13 6.13 0 1 0 -12.26 0zM312.37 1984.5 a6.13 6.13 0 1 0 12.26 0 a6.13 6.13 0 1 0 -12.26 0z" fill="black"></path><path d="M67.37 2817.5 a6.13 6.13 0 1 0 12.26 0 a6.13 6.13 0 1 0 -12.26 0zM753.37 1886.5 a6.13 6.13 0 1 0 12.26 0 a6.13 6.13 0 1 0 -12.26 0z" fill="black"></path><path d="M949.37 2915.5 a6.13 6.13 0 1 0 12.26 0 a6.13 6.13 0 1 0 -12.26 0zM1439.37 2376.5 a6.13 6.13 0 1 0 12.26 0 a6.13 6.13 0 1 0 -12.26 0z" fill="black"></path><path d="M165.37 2719.5 a6.13 6.13 0 1 0 12.26 0 a6.13 6.13 0 1 0 -12.26 0zM18.37 2964.5 a6.13 6.13 0 1 0 12.26 0 a6.13 6.13 0 1 0 -12.26 0z" fill="black"></path><path d="M1341.37 1298.5 a6.13 6.13 0 1 0 12.26 0 a6.13 6.13 0 1 0 -12.26 0zM1390.37 857.5 a6.13 6.13 0 1 0 12.26 0 a6.13 6.13 0 1 0 -12.26 0z" fill="black"></path><path d="M312.37 122.5 a6.13 6.13 0 1 0 12.26 0 a6.13 6.13 0 1 0 -12.26 0zM67.37 416.5 a6.13 6.13 0 1 0 12.26 0 a6.13 6.13 0 1 0 -12.26 0z" fill="black"></path><path d="M1292.37 1445.5 a6.13 6.13 0 1 0 12.26 0 a6.13 6.13 0 1 0 -12.26 0zM1341.37 2082.5 a6.13 6.13 0 1 0 12.26 0 a6.13 6.13 0 1 0 -12.26 0z" fill="black"></path><path d="M557.37 612.5 a6.13 6.13 0 1 0 12.26 0 a6.13 6.13 0 1 0 -12.26 0zM18.37 1543.5 a6.13 6.13 0 1 0 12.26 0 a6.13 6.13 0 1 0 -12.26 0z" fill="black"></path><path d="M704.37 514.5 a6.13 6.13 0 1 0 12.26 0 a6.13 6.13 0 1 0 -12.26 0zM753.37 661.5 a6.13 6.13 0 1 0 12.26 0 a6.13 6.13 0 1 0 -12.26 0z" fill="black"></path><path d="M1194.37 2915.5 a6.13 6.13 0 1 0 12.26 0 a6.13 6.13 0 1 0 -12.26 0zM1439.37 2474.5 a6.13 6.13 0 1 0 12.26 0 a6.13 6.13 0 1 0 -12.26 0z" fill="black"></path><path d="M459.37 906.5 a6.13 6.13 0 1 0 12.26 0 a6.13 6.13 0 1 0 -12.26 0zM508.37 612.5 a6.13 6.13 0 1 0 12.26 0 a6.13 6.13 0 1 0 -12.26 0z" fill="black"></path><path d="M410.37 2180.5 a6.13 6.13 0 1 0 12.26 0 a6.13 6.13 0 1 0 -12.26 0zM18.37 2572.5 a6.13 6.13 0 1 0 12.26 0 a6.13 6.13 0 1 0 -12.26 0z" fill="black"></path><path d="M214.37 73.5 a6.13 6.13 0 1 0 12.26 0 a6.13 6.13 0 1 0 -12.26 0zM67.37 73.5 a6.13 6.13 0 1 0 12.26 0 a6.13 6.13 0 1 0 -12.26 0z" fill="black"></path><path d="M1096.37 1935.5 a6.13 6.13 0 1 0 12.26 0 a6.13 6.13 0 1 0 -12.26 0zM998.37 1935.5 a6.13 6.13 0 1 0 12.26 0 a6.13 6.13 0 1 0 -12.26 0z" fill="black"></path><path d="M557.37 2033.5 a6.13 6.13 0 1 0 12.26 0 a6.13 6.13 0 1 0 -12.26 0zM1145.37 1445.5 a6.13 6.13 0 1 0 12.26 0 a6.13 6.13 0 1 0 -12.26 0z" fill="black"></path><path d="M753.37 2180.5 a6.13 6.13 0 1 0 12.26 0 a6.13 6.13 0 1 0 -12.26 0zM1145.37 1592.5 a6.13 6.13 0 1 0 12.26 0 a6.13 6.13 0 1 0 -12.26 0z" fill="black"></path><path d="M655.37 1641.5 a6.13 6.13 0 1 0 12.26 0 a6.13 6.13 0 1 0 -12.26 0zM459.37 1935.5 a6.13 6.13 0 1 0 12.26 0 a6.13 6.13 0 1 0 -12.26 0z" fill="black"></path><path d="M851.37 1886.5 a6.13 6.13 0 1 0 12.26 0 a6.13 6.13 0 1 0 -12.26 0zM802.37 2180.5 a6.13 6.13 0 1 0 12.26 0 a6.13 6.13 0 1 0 -12.26 0z" fill="black"></path><path d="M1096.37 1494.5 a6.13 6.13 0 1 0 12.26 0 a6.13 6.13 0 1 0 -12.26 0zM606.37 1984.5 a6.13 6.13 0 1 0 12.26 0 a6.13 6.13 0 1 0 -12.26 0z" fill="black"></path><path d="M606.37 1347.5 a6.13 6.13 0 1 0 12.26 0 a6.13 6.13 0 1 0 -12.26 0zM410.37 1249.5 a6.13 6.13 0 1 0 12.26 0 a6.13 6.13 0 1 0 -12.26 0z" fill="black"></path><path d="M18.37 2768.5 a6.13 6.13 0 1 0 12.26 0 a6.13 6.13 0 1 0 -12.26 0zM18.37 2915.5 a6.13 6.13 0 1 0 12.26 0 a6.13 6.13 0 1 0 -12.26 0z" fill="black"></path><path d="M410.37 318.5 a6.13 6.13 0 1 0 12.26 0 a6.13 6.13 0 1 0 -12.26 0zM165.37 1102.5 a6.13 6.13 0 1 0 12.26 0 a6.13 6.13 0 1 0 -12.26 0z" fill="black"></path><path d="M900.37 416.5 a6.13 6.13 0 1 0 12.26 0 a6.13 6.13 0 1 0 -12.26 0zM753.37 367.5 a6.13 6.13 0 1 0 12.26 0 a6.13 6.13 0 1 0 -12.26 0z" fill="black"></path><path d="M263.37 3013.5 a6.13 6.13 0 1 0 12.26 0 a6.13 6.13 0 1 0 -12.26 0zM116.37 3013.5 a6.13 6.13 0 1 0 12.26 0 a6.13 6.13 0 1 0 -12.26 0z" fill="black"></path><path d="M1341.37 1102.5 a6.13 6.13 0 1 0 12.26 0 a6.13 6.13 0 1 0 -12.26 0zM1439.37 1249.5 a6.13 6.13 0 1 0 12.26 0 a6.13 6.13 0 1 0 -12.26 0z" fill="black"></path><path d="M116.37 1004.5 a6.13 6.13 0 1 0 12.26 0 a6.13 6.13 0 1 0 -12.26 0zM18.37 1396.5 a6.13 6.13 0 1 0 12.26 0 a6.13 6.13 0 1 0 -12.26 0z" fill="black"></path><path d="M900.37 367.5 a6.13 6.13 0 1 0 12.26 0 a6.13 6.13 0 1 0 -12.26 0zM802.37 318.5 a6.13 6.13 0 1 0 12.26 0 a6.13 6.13 0 1 0 -12.26 0z" fill="black"></path><path d="M1047.37 857.5 a6.13 6.13 0 1 0 12.26 0 a6.13 6.13 0 1 0 -12.26 0zM1047.37 1102.5 a6.13 6.13 0 1 0 12.26 0 a6.13 6.13 0 1 0 -12.26 0z" fill="black"></path><path d="M67.37 1739.5 a6.13 6.13 0 1 0 12.26 0 a6.13 6.13 0 1 0 -12.26 0zM18.37 2131.5 a6.13 6.13 0 1 0 12.26 0 a6.13 6.13 0 1 0 -12.26 0z" fill="black"></path><path d="M508.37 1837.5 a6.13 6.13 0 1 0 12.26 0 a6.13 6.13 0 1 0 -12.26 0zM802.37 1592.5 a6.13 6.13 0 1 0 12.26 0 a6.13 6.13 0 1 0 -12.26 0z" fill="black"></path><path d="M410.37 367.5 a6.13 6.13 0 1 0 12.26 0 a6.13 6.13 0 1 0 -12.26 0zM459.37 122.5 a6.13 6.13 0 1 0 12.26 0 a6.13 6.13 0 1 0 -12.26 0z" fill="black"></path><path d="M214.37 857.5 a6.13 6.13 0 1 0 12.26 0 a6.13 6.13 0 1 0 -12.26 0zM18.37 857.5 a6.13 6.13 0 1 0 12.26 0 a6.13 6.13 0 1 0 -12.26 0z" fill="black"></path><path d="M361.37 2180.5 a6.13 6.13 0 1 0 12.26 0 a6.13 6.13 0 1 0 -12.26 0zM18.37 2523.5 a6.13 6.13 0 1 0 12.26 0 a6.13 6.13 0 1 0 -12.26 0z" fill="black"></path><path d="M1047.37 1690.5 a6.13 6.13 0 1 0 12.26 0 a6.13 6.13 0 1 0 -12.26 0zM1145.37 1641.5 a6.13 6.13 0 1 0 12.26 0 a6.13 6.13 0 1 0 -12.26 0z" fill="black"></path><path d="M753.37 1347.5 a6.13 6.13 0 1 0 12.26 0 a6.13 6.13 0 1 0 -12.26 0zM459.37 1200.5 a6.13 6.13 0 1 0 12.26 0 a6.13 6.13 0 1 0 -12.26 0z" fill="black"></path><path d="M361.37 612.5 a6.13 6.13 0 1 0 12.26 0 a6.13 6.13 0 1 0 -12.26 0zM361.37 318.5 a6.13 6.13 0 1 0 12.26 0 a6.13 6.13 0 1 0 -12.26 0z" fill="black"></path><path d="M1145.37 2621.5 a6.13 6.13 0 1 0 12.26 0 a6.13 6.13 0 1 0 -12.26 0zM1390.37 2278.5 a6.13 6.13 0 1 0 12.26 0 a6.13 6.13 0 1 0 -12.26 0z" fill="black"></path><path d="M1439.37 2621.5 a6.13 6.13 0 1 0 12.26 0 a6.13 6.13 0 1 0 -12.26 0zM1341.37 2670.5 a6.13 6.13 0 1 0 12.26 0 a6.13 6.13 0 1 0 -12.26 0z" fill="black"></path><path d="M851.37 563.5 a6.13 6.13 0 1 0 12.26 0 a6.13 6.13 0 1 0 -12.26 0zM851.37 1004.5 a6.13 6.13 0 1 0 12.26 0 a6.13 6.13 0 1 0 -12.26 0z" fill="black"></path><path d="M410.37 465.5 a6.13 6.13 0 1 0 12.26 0 a6.13 6.13 0 1 0 -12.26 0zM900.37 73.5 a6.13 6.13 0 1 0 12.26 0 a6.13 6.13 0 1 0 -12.26 0z" fill="black"></path><path d="M1096.37 122.5 a6.13 6.13 0 1 0 12.26 0 a6.13 6.13 0 1 0 -12.26 0zM1390.37 416.5 a6.13 6.13 0 1 0 12.26 0 a6.13 6.13 0 1 0 -12.26 0z" fill="black"></path><path d="M900.37 1837.5 a6.13 6.13 0 1 0 12.26 0 a6.13 6.13 0 1 0 -12.26 0zM1047.37 1739.5 a6.13 6.13 0 1 0 12.26 0 a6.13 6.13 0 1 0 -12.26 0z" fill="black"></path><path d="M67.37 2131.5 a6.13 6.13 0 1 0 12.26 0 a6.13 6.13 0 1 0 -12.26 0zM165.37 1886.5 a6.13 6.13 0 1 0 12.26 0 a6.13 6.13 0 1 0 -12.26 0z" fill="black"></path><path d="M1047.37 318.5 a6.13 6.13 0 1 0 12.26 0 a6.13 6.13 0 1 0 -12.26 0zM1047.37 171.5 a6.13 6.13 0 1 0 12.26 0 a6.13 6.13 0 1 0 -12.26 0z" fill="black"></path><path d="M1194.37 906.5 a6.13 6.13 0 1 0 12.26 0 a6.13 6.13 0 1 0 -12.26 0zM1292.37 857.5 a6.13 6.13 0 1 0 12.26 0 a6.13 6.13 0 1 0 -12.26 0z" fill="black"></path><path d="M1096.37 2866.5 a6.13 6.13 0 1 0 12.26 0 a6.13 6.13 0 1 0 -12.26 0zM753.37 3013.5 a6.13 6.13 0 1 0 12.26 0 a6.13 6.13 0 1 0 -12.26 0z" fill="black"></path><path d="M1341.37 563.5 a6.13 6.13 0 1 0 12.26 0 a6.13 6.13 0 1 0 -12.26 0zM1341.37 465.5 a6.13 6.13 0 1 0 12.26 0 a6.13 6.13 0 1 0 -12.26 0z" fill="black"></path><path d="M1145.37 906.5 a6.13 6.13 0 1 0 12.26 0 a6.13 6.13 0 1 0 -12.26 0zM1047.37 661.5 a6.13 6.13 0 1 0 12.26 0 a6.13 6.13 0 1 0 -12.26 0z" fill="black"></path><path d="M655.37 2817.5 a6.13 6.13 0 1 0 12.26 0 a6.13 6.13 0 1 0 -12.26 0zM557.37 2964.5 a6.13 6.13 0 1 0 12.26 0 a6.13 6.13 0 1 0 -12.26 0z" fill="black"></path><path d="M18.37 955.5 a6.13 6.13 0 1 0 12.26 0 a6.13 6.13 0 1 0 -12.26 0zM18.37 1200.5 a6.13 6.13 0 1 0 12.26 0 a6.13 6.13 0 1 0 -12.26 0z" fill="black"></path><path d="M1341.37 1641.5 a6.13 6.13 0 1 0 12.26 0 a6.13 6.13 0 1 0 -12.26 0zM1341.37 1788.5 a6.13 6.13 0 1 0 12.26 0 a6.13 6.13 0 1 0 -12.26 0z" fill="black"></path><path d="M1096.37 2964.5 a6.13 6.13 0 1 0 12.26 0 a6.13 6.13 0 1 0 -12.26 0zM998.37 3013.5 a6.13 6.13 0 1 0 12.26 0 a6.13 6.13 0 1 0 -12.26 0z" fill="black"></path><path d="M263.37 2719.5 a6.13 6.13 0 1 0 12.26 0 a6.13 6.13 0 1 0 -12.26 0zM165.37 2866.5 a6.13 6.13 0 1 0 12.26 0 a6.13 6.13 0 1 0 -12.26 0z" fill="black"></path><path d="M1341.37 2866.5 a6.13 6.13 0 1 0 12.26 0 a6.13 6.13 0 1 0 -12.26 0zM1439.37 2768.5 a6.13 6.13 0 1 0 12.26 0 a6.13 6.13 0 1 0 -12.26 0z" fill="black"></path><path d="M361.37 1396.5 a6.13 6.13 0 1 0 12.26 0 a6.13 6.13 0 1 0 -12.26 0zM18.37 1984.5 a6.13 6.13 0 1 0 12.26 0 a6.13 6.13 0 1 0 -12.26 0z" fill="black"></path><path d="M655.37 2523.5 a6.13 6.13 0 1 0 12.26 0 a6.13 6.13 0 1 0 -12.26 0zM165.37 2964.5 a6.13 6.13 0 1 0 12.26 0 a6.13 6.13 0 1 0 -12.26 0z" fill="black"></path><path d="M508.37 759.5 a6.13 6.13 0 1 0 12.26 0 a6.13 6.13 0 1 0 -12.26 0zM508.37 857.5 a6.13 6.13 0 1 0 12.26 0 a6.13 6.13 0 1 0 -12.26 0z" fill="black"></path><path d="M214.37 661.5 a6.13 6.13 0 1 0 12.26 0 a6.13 6.13 0 1 0 -12.26 0zM263.37 857.5 a6.13 6.13 0 1 0 12.26 0 a6.13 6.13 0 1 0 -12.26 0z" fill="black"></path><path d="M263.37 1788.5 a6.13 6.13 0 1 0 12.26 0 a6.13 6.13 0 1 0 -12.26 0zM312.37 1935.5 a6.13 6.13 0 1 0 12.26 0 a6.13 6.13 0 1 0 -12.26 0z" fill="black"></path><path d="M753.37 1837.5 a6.13 6.13 0 1 0 12.26 0 a6.13 6.13 0 1 0 -12.26 0zM1047.37 1543.5 a6.13 6.13 0 1 0 12.26 0 a6.13 6.13 0 1 0 -12.26 0z" fill="black"></path><path d="M214.37 563.5 a6.13 6.13 0 1 0 12.26 0 a6.13 6.13 0 1 0 -12.26 0zM361.37 661.5 a6.13 6.13 0 1 0 12.26 0 a6.13 6.13 0 1 0 -12.26 0z" fill="black"></path><path d="M165.37 1494.5 a6.13 6.13 0 1 0 12.26 0 a6.13 6.13 0 1 0 -12.26 0zM263.37 1249.5 a6.13 6.13 0 1 0 12.26 0 a6.13 6.13 0 1 0 -12.26 0z" fill="black"></path><path d="M67.37 1494.5 a6.13 6.13 0 1 0 12.26 0 a6.13 6.13 0 1 0 -12.26 0zM18.37 1690.5 a6.13 6.13 0 1 0 12.26 0 a6.13 6.13 0 1 0 -12.26 0z" fill="black"></path><path d="M949.37 1053.5 a6.13 6.13 0 1 0 12.26 0 a6.13 6.13 0 1 0 -12.26 0zM949.37 710.5 a6.13 6.13 0 1 0 12.26 0 a6.13 6.13 0 1 0 -12.26 0z" fill="black"></path><path d="M655.37 2719.5 a6.13 6.13 0 1 0 12.26 0 a6.13 6.13 0 1 0 -12.26 0zM410.37 3013.5 a6.13 6.13 0 1 0 12.26 0 a6.13 6.13 0 1 0 -12.26 0z" fill="black"></path><path d="M410.37 24.5 a6.13 6.13 0 1 0 12.26 0 a6.13 6.13 0 1 0 -12.26 0zM67.37 24.5 a6.13 6.13 0 1 0 12.26 0 a6.13 6.13 0 1 0 -12.26 0z" fill="black"></path><path d="M1194.37 171.5 a6.13 6.13 0 1 0 12.26 0 a6.13 6.13 0 1 0 -12.26 0zM1096.37 171.5 a6.13 6.13 0 1 0 12.26 0 a6.13 6.13 0 1 0 -12.26 0z" fill="black"></path><path d="M1341.37 2768.5 a6.13 6.13 0 1 0 12.26 0 a6.13 6.13 0 1 0 -12.26 0zM1047.37 3013.5 a6.13 6.13 0 1 0 12.26 0 a6.13 6.13 0 1 0 -12.26 0z" fill="black"></path><path d="M606.37 2915.5 a6.13 6.13 0 1 0 12.26 0 a6.13 6.13 0 1 0 -12.26 0zM753.37 2915.5 a6.13 6.13 0 1 0 12.26 0 a6.13 6.13 0 1 0 -12.26 0z" fill="black"></path><path d="M1047.37 2082.5 a6.13 6.13 0 1 0 12.26 0 a6.13 6.13 0 1 0 -12.26 0zM1194.37 1739.5 a6.13 6.13 0 1 0 12.26 0 a6.13 6.13 0 1 0 -12.26 0z" fill="black"></path><path d="M165.37 220.5 a6.13 6.13 0 1 0 12.26 0 a6.13 6.13 0 1 0 -12.26 0zM67.37 367.5 a6.13 6.13 0 1 0 12.26 0 a6.13 6.13 0 1 0 -12.26 0z" fill="black"></path><path d="M361.37 2327.5 a6.13 6.13 0 1 0 12.26 0 a6.13 6.13 0 1 0 -12.26 0zM263.37 2425.5 a6.13 6.13 0 1 0 12.26 0 a6.13 6.13 0 1 0 -12.26 0z" fill="black"></path><path d="M165.37 2670.5 a6.13 6.13 0 1 0 12.26 0 a6.13 6.13 0 1 0 -12.26 0zM410.37 2572.5 a6.13 6.13 0 1 0 12.26 0 a6.13 6.13 0 1 0 -12.26 0z" fill="black"></path><path d="M949.37 2523.5 a6.13 6.13 0 1 0 12.26 0 a6.13 6.13 0 1 0 -12.26 0zM1047.37 2376.5 a6.13 6.13 0 1 0 12.26 0 a6.13 6.13 0 1 0 -12.26 0z" fill="black"></path><path d="M655.37 857.5 a6.13 6.13 0 1 0 12.26 0 a6.13 6.13 0 1 0 -12.26 0zM606.37 759.5 a6.13 6.13 0 1 0 12.26 0 a6.13 6.13 0 1 0 -12.26 0z" fill="black"></path><path d="M361.37 2719.5 a6.13 6.13 0 1 0 12.26 0 a6.13 6.13 0 1 0 -12.26 0zM214.37 2768.5 a6.13 6.13 0 1 0 12.26 0 a6.13 6.13 0 1 0 -12.26 0z" fill="black"></path><path d="M606.37 563.5 a6.13 6.13 0 1 0 12.26 0 a6.13 6.13 0 1 0 -12.26 0zM704.37 416.5 a6.13 6.13 0 1 0 12.26 0 a6.13 6.13 0 1 0 -12.26 0z" fill="black"></path><path d="M214.37 1690.5 a6.13 6.13 0 1 0 12.26 0 a6.13 6.13 0 1 0 -12.26 0zM312.37 1543.5 a6.13 6.13 0 1 0 12.26 0 a6.13 6.13 0 1 0 -12.26 0z" fill="black"></path><path d="M67.37 1102.5 a6.13 6.13 0 1 0 12.26 0 a6.13 6.13 0 1 0 -12.26 0zM67.37 906.5 a6.13 6.13 0 1 0 12.26 0 a6.13 6.13 0 1 0 -12.26 0z" fill="black"></path><path d="M1096.37 857.5 a6.13 6.13 0 1 0 12.26 0 a6.13 6.13 0 1 0 -12.26 0zM1096.37 661.5 a6.13 6.13 0 1 0 12.26 0 a6.13 6.13 0 1 0 -12.26 0z" fill="black"></path><path d="M900.37 2768.5 a6.13 6.13 0 1 0 12.26 0 a6.13 6.13 0 1 0 -12.26 0zM1145.37 2670.5 a6.13 6.13 0 1 0 12.26 0 a6.13 6.13 0 1 0 -12.26 0z" fill="black"></path><path d="M1096.37 1053.5 a6.13 6.13 0 1 0 12.26 0 a6.13 6.13 0 1 0 -12.26 0zM1096.37 906.5 a6.13 6.13 0 1 0 12.26 0 a6.13 6.13 0 1 0 -12.26 0z" fill="black"></path><path d="M1390.37 563.5 a6.13 6.13 0 1 0 12.26 0 a6.13 6.13 0 1 0 -12.26 0zM1390.37 710.5 a6.13 6.13 0 1 0 12.26 0 a6.13 6.13 0 1 0 -12.26 0z" fill="black"></path><path d="M459.37 563.5 a6.13 6.13 0 1 0 12.26 0 a6.13 6.13 0 1 0 -12.26 0zM312.37 367.5 a6.13 6.13 0 1 0 12.26 0 a6.13 6.13 0 1 0 -12.26 0z" fill="black"></path><path d="M410.37 220.5 a6.13 6.13 0 1 0 12.26 0 a6.13 6.13 0 1 0 -12.26 0zM459.37 318.5 a6.13 6.13 0 1 0 12.26 0 a6.13 6.13 0 1 0 -12.26 0z" fill="black"></path><path d="M1341.37 269.5 a6.13 6.13 0 1 0 12.26 0 a6.13 6.13 0 1 0 -12.26 0zM1096.37 367.5 a6.13 6.13 0 1 0 12.26 0 a6.13 6.13 0 1 0 -12.26 0z" fill="black"></path><path d="M214.37 1151.5 a6.13 6.13 0 1 0 12.26 0 a6.13 6.13 0 1 0 -12.26 0zM410.37 710.5 a6.13 6.13 0 1 0 12.26 0 a6.13 6.13 0 1 0 -12.26 0z" fill="black"></path><path d="M1145.37 2915.5 a6.13 6.13 0 1 0 12.26 0 a6.13 6.13 0 1 0 -12.26 0zM1145.37 2768.5 a6.13 6.13 0 1 0 12.26 0 a6.13 6.13 0 1 0 -12.26 0z" fill="black"></path><path d="M410.37 2082.5 a6.13 6.13 0 1 0 12.26 0 a6.13 6.13 0 1 0 -12.26 0zM508.37 2082.5 a6.13 6.13 0 1 0 12.26 0 a6.13 6.13 0 1 0 -12.26 0z" fill="black"></path><path d="M1145.37 367.5 a6.13 6.13 0 1 0 12.26 0 a6.13 6.13 0 1 0 -12.26 0zM1145.37 269.5 a6.13 6.13 0 1 0 12.26 0 a6.13 6.13 0 1 0 -12.26 0z" fill="black"></path><path d="M67.37 2376.5 a6.13 6.13 0 1 0 12.26 0 a6.13 6.13 0 1 0 -12.26 0zM18.37 2278.5 a6.13 6.13 0 1 0 12.26 0 a6.13 6.13 0 1 0 -12.26 0z" fill="black"></path><path d="M165.37 661.5 a6.13 6.13 0 1 0 12.26 0 a6.13 6.13 0 1 0 -12.26 0zM18.37 808.5 a6.13 6.13 0 1 0 12.26 0 a6.13 6.13 0 1 0 -12.26 0z" fill="black"></path><path d="M1047.37 2719.5 a6.13 6.13 0 1 0 12.26 0 a6.13 6.13 0 1 0 -12.26 0zM1096.37 2621.5 a6.13 6.13 0 1 0 12.26 0 a6.13 6.13 0 1 0 -12.26 0z" fill="black"></path><path d="M704.37 2180.5 a6.13 6.13 0 1 0 12.26 0 a6.13 6.13 0 1 0 -12.26 0zM606.37 2082.5 a6.13 6.13 0 1 0 12.26 0 a6.13 6.13 0 1 0 -12.26 0z" fill="black"></path><path d="M606.37 2474.5 a6.13 6.13 0 1 0 12.26 0 a6.13 6.13 0 1 0 -12.26 0zM508.37 2621.5 a6.13 6.13 0 1 0 12.26 0 a6.13 6.13 0 1 0 -12.26 0z" fill="black"></path><path d="M116.37 1445.5 a6.13 6.13 0 1 0 12.26 0 a6.13 6.13 0 1 0 -12.26 0zM116.37 1592.5 a6.13 6.13 0 1 0 12.26 0 a6.13 6.13 0 1 0 -12.26 0z" fill="black"></path><path d="M1194.37 269.5 a6.13 6.13 0 1 0 12.26 0 a6.13 6.13 0 1 0 -12.26 0zM1194.37 367.5 a6.13 6.13 0 1 0 12.26 0 a6.13 6.13 0 1 0 -12.26 0z" fill="black"></path><path d="M998.37 171.5 a6.13 6.13 0 1 0 12.26 0 a6.13 6.13 0 1 0 -12.26 0zM998.37 367.5 a6.13 6.13 0 1 0 12.26 0 a6.13 6.13 0 1 0 -12.26 0z" fill="black"></path><path d="M1243.37 367.5 a6.13 6.13 0 1 0 12.26 0 a6.13 6.13 0 1 0 -12.26 0zM1341.37 367.5 a6.13 6.13 0 1 0 12.26 0 a6.13 6.13 0 1 0 -12.26 0z" fill="black"></path><path d="M851.37 2866.5 a6.13 6.13 0 1 0 12.26 0 a6.13 6.13 0 1 0 -12.26 0zM949.37 2964.5 a6.13 6.13 0 1 0 12.26 0 a6.13 6.13 0 1 0 -12.26 0z" fill="black"></path><path d="M1439.37 1102.5 a6.13 6.13 0 1 0 12.26 0 a6.13 6.13 0 1 0 -12.26 0zM1439.37 906.5 a6.13 6.13 0 1 0 12.26 0 a6.13 6.13 0 1 0 -12.26 0z" fill="black"></path><path d="M312.37 2670.5 a6.13 6.13 0 1 0 12.26 0 a6.13 6.13 0 1 0 -12.26 0zM410.37 2670.5 a6.13 6.13 0 1 0 12.26 0 a6.13 6.13 0 1 0 -12.26 0z" fill="black"></path><path d="M557.37 122.5 a6.13 6.13 0 1 0 12.26 0 a6.13 6.13 0 1 0 -12.26 0zM704.37 73.5 a6.13 6.13 0 1 0 12.26 0 a6.13 6.13 0 1 0 -12.26 0z" fill="black"></path><path d="M1145.37 1935.5 a6.13 6.13 0 1 0 12.26 0 a6.13 6.13 0 1 0 -12.26 0zM1145.37 1837.5 a6.13 6.13 0 1 0 12.26 0 a6.13 6.13 0 1 0 -12.26 0z" fill="black"></path><path d="M1292.37 24.5 a6.13 6.13 0 1 0 12.26 0 a6.13 6.13 0 1 0 -12.26 0zM1390.37 122.5 a6.13 6.13 0 1 0 12.26 0 a6.13 6.13 0 1 0 -12.26 0z" fill="black"></path><path d="M116.37 906.5 a6.13 6.13 0 1 0 12.26 0 a6.13 6.13 0 1 0 -12.26 0zM214.37 906.5 a6.13 6.13 0 1 0 12.26 0 a6.13 6.13 0 1 0 -12.26 0z" fill="black"></path><path d="M802.37 1298.5 a6.13 6.13 0 1 0 12.26 0 a6.13 6.13 0 1 0 -12.26 0zM802.37 1396.5 a6.13 6.13 0 1 0 12.26 0 a6.13 6.13 0 1 0 -12.26 0z" fill="black"></path><path d="M361.37 563.5 a6.13 6.13 0 1 0 12.26 0 a6.13 6.13 0 1 0 -12.26 0zM312.37 465.5 a6.13 6.13 0 1 0 12.26 0 a6.13 6.13 0 1 0 -12.26 0z" fill="black"></path><path d="M606.37 1200.5 a6.13 6.13 0 1 0 12.26 0 a6.13 6.13 0 1 0 -12.26 0zM704.37 1249.5 a6.13 6.13 0 1 0 12.26 0 a6.13 6.13 0 1 0 -12.26 0z" fill="black"></path><path d="M606.37 1004.5 a6.13 6.13 0 1 0 12.26 0 a6.13 6.13 0 1 0 -12.26 0zM704.37 906.5 a6.13 6.13 0 1 0 12.26 0 a6.13 6.13 0 1 0 -12.26 0z" fill="black"></path><path d="M802.37 2964.5 a6.13 6.13 0 1 0 12.26 0 a6.13 6.13 0 1 0 -12.26 0zM900.37 2964.5 a6.13 6.13 0 1 0 12.26 0 a6.13 6.13 0 1 0 -12.26 0z" fill="black"></path><path d="M67.37 2082.5 a6.13 6.13 0 1 0 12.26 0 a6.13 6.13 0 1 0 -12.26 0zM165.37 1935.5 a6.13 6.13 0 1 0 12.26 0 a6.13 6.13 0 1 0 -12.26 0z" fill="black"></path><path d="M1341.37 1396.5 a6.13 6.13 0 1 0 12.26 0 a6.13 6.13 0 1 0 -12.26 0zM1243.37 1200.5 a6.13 6.13 0 1 0 12.26 0 a6.13 6.13 0 1 0 -12.26 0z" fill="black"></path><path d="M753.37 2376.5 a6.13 6.13 0 1 0 12.26 0 a6.13 6.13 0 1 0 -12.26 0zM851.37 2327.5 a6.13 6.13 0 1 0 12.26 0 a6.13 6.13 0 1 0 -12.26 0z" fill="black"></path><path d="M312.37 1004.5 a6.13 6.13 0 1 0 12.26 0 a6.13 6.13 0 1 0 -12.26 0zM361.37 906.5 a6.13 6.13 0 1 0 12.26 0 a6.13 6.13 0 1 0 -12.26 0z" fill="black"></path><path d="M998.37 465.5 a6.13 6.13 0 1 0 12.26 0 a6.13 6.13 0 1 0 -12.26 0zM900.37 465.5 a6.13 6.13 0 1 0 12.26 0 a6.13 6.13 0 1 0 -12.26 0z" fill="black"></path><path d="M1194.37 759.5 a6.13 6.13 0 1 0 12.26 0 a6.13 6.13 0 1 0 -12.26 0zM1145.37 661.5 a6.13 6.13 0 1 0 12.26 0 a6.13 6.13 0 1 0 -12.26 0z" fill="black"></path><path d="M655.37 1592.5 a6.13 6.13 0 1 0 12.26 0 a6.13 6.13 0 1 0 -12.26 0zM557.37 1592.5 a6.13 6.13 0 1 0 12.26 0 a6.13 6.13 0 1 0 -12.26 0z" fill="black"></path><path d="M851.37 2768.5 a6.13 6.13 0 1 0 12.26 0 a6.13 6.13 0 1 0 -12.26 0zM851.37 2572.5 a6.13 6.13 0 1 0 12.26 0 a6.13 6.13 0 1 0 -12.26 0z" fill="black"></path><path d="M1243.37 465.5 a6.13 6.13 0 1 0 12.26 0 a6.13 6.13 0 1 0 -12.26 0zM1341.37 661.5 a6.13 6.13 0 1 0 12.26 0 a6.13 6.13 0 1 0 -12.26 0z" fill="black"></path><path d="M67.37 1886.5 a6.13 6.13 0 1 0 12.26 0 a6.13 6.13 0 1 0 -12.26 0zM67.37 1788.5 a6.13 6.13 0 1 0 12.26 0 a6.13 6.13 0 1 0 -12.26 0z" fill="black"></path><path d="M18.37 661.5 a6.13 6.13 0 1 0 12.26 0 a6.13 6.13 0 1 0 -12.26 0zM18.37 759.5 a6.13 6.13 0 1 0 12.26 0 a6.13 6.13 0 1 0 -12.26 0z" fill="black"></path><path d="M312.37 1053.5 a6.13 6.13 0 1 0 12.26 0 a6.13 6.13 0 1 0 -12.26 0zM214.37 1053.5 a6.13 6.13 0 1 0 12.26 0 a6.13 6.13 0 1 0 -12.26 0z" fill="black"></path><path d="M655.37 2180.5 a6.13 6.13 0 1 0 12.26 0 a6.13 6.13 0 1 0 -12.26 0zM557.37 2131.5 a6.13 6.13 0 1 0 12.26 0 a6.13 6.13 0 1 0 -12.26 0z" fill="black"></path><path d="M410.37 1543.5 a6.13 6.13 0 1 0 12.26 0 a6.13 6.13 0 1 0 -12.26 0zM361.37 1641.5 a6.13 6.13 0 1 0 12.26 0 a6.13 6.13 0 1 0 -12.26 0z" fill="black"></path><path d="M606.37 808.5 a6.13 6.13 0 1 0 12.26 0 a6.13 6.13 0 1 0 -12.26 0zM606.37 906.5 a6.13 6.13 0 1 0 12.26 0 a6.13 6.13 0 1 0 -12.26 0z" fill="black"></path><path d="M802.37 2131.5 a6.13 6.13 0 1 0 12.26 0 a6.13 6.13 0 1 0 -12.26 0zM998.37 2131.5 a6.13 6.13 0 1 0 12.26 0 a6.13 6.13 0 1 0 -12.26 0z" fill="black"></path><path d="M214.37 514.5 a6.13 6.13 0 1 0 12.26 0 a6.13 6.13 0 1 0 -12.26 0zM214.37 416.5 a6.13 6.13 0 1 0 12.26 0 a6.13 6.13 0 1 0 -12.26 0z" fill="black"></path><path d="M704.37 2964.5 a6.13 6.13 0 1 0 12.26 0 a6.13 6.13 0 1 0 -12.26 0zM606.37 2964.5 a6.13 6.13 0 1 0 12.26 0 a6.13 6.13 0 1 0 -12.26 0z" fill="black"></path><path d="M361.37 1788.5 a6.13 6.13 0 1 0 12.26 0 a6.13 6.13 0 1 0 -12.26 0zM410.37 1935.5 a6.13 6.13 0 1 0 12.26 0 a6.13 6.13 0 1 0 -12.26 0z" fill="black"></path><path d="M949.37 2719.5 a6.13 6.13 0 1 0 12.26 0 a6.13 6.13 0 1 0 -12.26 0zM900.37 2621.5 a6.13 6.13 0 1 0 12.26 0 a6.13 6.13 0 1 0 -12.26 0z" fill="black"></path><path d="M1439.37 2131.5 a6.13 6.13 0 1 0 12.26 0 a6.13 6.13 0 1 0 -12.26 0zM1439.37 2229.5 a6.13 6.13 0 1 0 12.26 0 a6.13 6.13 0 1 0 -12.26 0z" fill="black"></path><path d="M361.37 1837.5 a6.13 6.13 0 1 0 12.26 0 a6.13 6.13 0 1 0 -12.26 0zM312.37 1739.5 a6.13 6.13 0 1 0 12.26 0 a6.13 6.13 0 1 0 -12.26 0z" fill="black"></path><path d="M1390.37 1445.5 a6.13 6.13 0 1 0 12.26 0 a6.13 6.13 0 1 0 -12.26 0zM1341.37 1592.5 a6.13 6.13 0 1 0 12.26 0 a6.13 6.13 0 1 0 -12.26 0z" fill="black"></path></mask></defs></svg>