<svg width="1468" height="855" viewBox="0 0 1468 855" fill="none" xmlns="http://www.w3.org/2000/svg">
<rect width="1468" height="855" fill="#151c2b"/>
<g clip-path="url(#clip0_0_1)">
<rect width="1468" height="855" fill="#3f3f46"/>
<circle cx="1264" cy="137" r="44" fill="url(#paint0_linear_0_1)"/>
<circle cx="185" cy="389.5" r="29" fill="url(#paint1_linear_0_1)"/>
<circle cx="1182" cy="427.5" r="38" fill="url(#paint2_linear_0_1)"/>
<circle cx="305" cy="552" r="31" fill="url(#paint3_linear_0_1)"/>
<circle cx="1064" cy="343.5" r="16" fill="url(#paint4_linear_0_1)"/>
<circle cx="473" cy="254" r="35" fill="url(#paint5_linear_0_1)"/>
<circle cx="1309" cy="522" r="19" fill="url(#paint6_linear_0_1)"/>
<circle cx="145" cy="207" r="11" fill="url(#paint7_linear_0_1)"/>
<circle cx="112" cy="623" r="22" fill="url(#paint8_linear_0_1)"/>
<path d="M-288.227 721.435C173.729 774.34 -67.0328 318.508 282.414 328.507C631.861 338.505 648.952 253.638 703.503 83.1533C747.143 -53.2345 840.002 -126.065 880.977 -145.432" stroke="#B46060" stroke-opacity="0.25" stroke-width="6" stroke-dasharray="20 20"/>
<path d="M1140.89 -69.3662C612.876 338.392 841.758 947.055 1158.19 701.572C1474.61 456.09 1407.28 482 1556.47 533.705C1675.82 575.07 1798.99 507.491 1845.66 468.53" stroke="#B46060" stroke-opacity="0.25" stroke-width="6" stroke-dasharray="20 20"/>
</g>
<defs>
<linearGradient id="paint0_linear_0_1" x1="1264" y1="93" x2="1264" y2="181" gradientUnits="userSpaceOnUse">
<stop stop-color="#FFEBEF" stop-opacity="0.3"/>
<stop offset="1" stop-color="#B46060" stop-opacity="0.36"/>
</linearGradient>
<linearGradient id="paint1_linear_0_1" x1="185" y1="360.5" x2="185" y2="418.5" gradientUnits="userSpaceOnUse">
<stop stop-color="#FFEBEF" stop-opacity="0.3"/>
<stop offset="1" stop-color="#B46060" stop-opacity="0.36"/>
</linearGradient>
<linearGradient id="paint2_linear_0_1" x1="1182" y1="389.5" x2="1182" y2="465.5" gradientUnits="userSpaceOnUse">
<stop stop-color="#FFEBEF" stop-opacity="0.3"/>
<stop offset="1" stop-color="#B46060" stop-opacity="0.36"/>
</linearGradient>
<linearGradient id="paint3_linear_0_1" x1="305" y1="521" x2="305" y2="583" gradientUnits="userSpaceOnUse">
<stop stop-color="#B46060" stop-opacity="0.51"/>
<stop offset="1" stop-color="#B46060" stop-opacity="0.75"/>
</linearGradient>
<linearGradient id="paint4_linear_0_1" x1="1064" y1="327.5" x2="1064" y2="359.5" gradientUnits="userSpaceOnUse">
<stop stop-color="#B46060" stop-opacity="0.51"/>
<stop offset="1" stop-color="#B46060" stop-opacity="0.75"/>
</linearGradient>
<linearGradient id="paint5_linear_0_1" x1="473" y1="219" x2="473" y2="289" gradientUnits="userSpaceOnUse">
<stop stop-color="#FFEBEF" stop-opacity="0.3"/>
<stop offset="1" stop-color="#B46060" stop-opacity="0.36"/>
</linearGradient>
<linearGradient id="paint6_linear_0_1" x1="1309" y1="503" x2="1309" y2="541" gradientUnits="userSpaceOnUse">
<stop stop-color="#FFEBEF" stop-opacity="0.3"/>
<stop offset="1" stop-color="#B46060" stop-opacity="0.36"/>
</linearGradient>
<linearGradient id="paint7_linear_0_1" x1="145" y1="196" x2="145" y2="218" gradientUnits="userSpaceOnUse">
<stop stop-color="#B46060" stop-opacity="0.51"/>
<stop offset="1" stop-color="#B46060" stop-opacity="0.75"/>
</linearGradient>
<linearGradient id="paint8_linear_0_1" x1="112" y1="601" x2="112" y2="645" gradientUnits="userSpaceOnUse">
<stop stop-color="#FFEBEF" stop-opacity="0.3"/>
<stop offset="1" stop-color="#B46060" stop-opacity="0.36"/>
</linearGradient>
<clipPath id="clip0_0_1">
<rect width="1468" height="855" fill="white"/>
</clipPath>
</defs>
</svg>
